<svg width="17" height="17" viewBox="0 0 17 17" fill="none" xmlns="http://www.w3.org/2000/svg">
<path d="M15.9519 15.2871H0.564121C0.252566 15.2871 0 15.545 0 15.8631V16.2912C0 16.6093 0.252566 16.8672 0.564121 16.8672H15.9519C16.2635 16.8672 16.5161 16.6093 16.5161 16.2912V15.8631C16.5161 15.545 16.2635 15.2871 15.9519 15.2871Z" fill="#919EAB"/>
<path d="M12.7789 14.5343H7.48132V4.13214H12.7789V14.5343ZM9.03783 12.9452H11.2224V5.72126H9.03783V12.9452Z" fill="#919EAB"/>
<path d="M15.3564 14.5343H11.2214V1.50771C11.2238 1.10631 11.3819 0.722235 11.6611 0.439628C11.9403 0.157021 12.3178 -0.00106574 12.711 5.40804e-06H15.0315C15.4245 -0.000799392 15.8018 0.157406 16.0807 0.439984C16.3597 0.722562 16.5177 1.10649 16.52 1.50771V13.3532C16.519 13.6674 16.3958 13.9682 16.1776 14.1897C15.9594 14.4111 15.664 14.5351 15.3564 14.5343ZM12.7779 12.9451H14.9626V1.58611H12.7789L12.7779 12.9451Z" fill="#919EAB"/>
<path d="M8.25992 13.7382H4.5188V2.98325C4.51944 2.88861 4.53834 2.79502 4.57441 2.70784C4.61048 2.62065 4.66302 2.54157 4.72903 2.47512C4.79503 2.40866 4.87321 2.35613 4.9591 2.32053C5.04499 2.28492 5.13691 2.26693 5.22961 2.2676H7.5491C7.6418 2.26693 7.73372 2.28492 7.81961 2.32053C7.90551 2.35613 7.98369 2.40866 8.04969 2.47512C8.1157 2.54157 8.16823 2.62065 8.20431 2.70784C8.24038 2.79502 8.25927 2.88861 8.25992 2.98325V13.7382Z" fill="white"/>
<path d="M9.03773 14.5342H3.74109V2.98323C3.74343 2.58184 3.90153 2.19776 4.18073 1.91515C4.45994 1.63255 4.83748 1.47446 5.23064 1.47553H7.54915C7.94215 1.47473 8.31944 1.63293 8.59843 1.91551C8.87742 2.19809 9.03538 2.58201 9.03773 2.98323V14.5342ZM5.29661 12.9451H7.48122V3.06264H5.29759L5.29661 12.9451Z" fill="#919EAB"/>
<path d="M5.29773 14.5343H1.16281C0.85548 14.5345 0.560586 14.4103 0.342807 14.1889C0.125027 13.9675 0.00214122 13.667 0.00109863 13.3532V8.3768C0.00240185 8.02384 0.140786 7.68582 0.38589 7.4369C0.630995 7.18797 0.962804 7.04848 1.30852 7.04901H5.29773V14.5343ZM1.55662 12.9451H3.74123V8.63813H1.55662V12.9451Z" fill="#919EAB"/>
</svg>
