<svg width="271" height="232" viewBox="0 0 271 232" fill="none" xmlns="http://www.w3.org/2000/svg">
<path d="M127.24 228.385L127.251 228.395L127.262 228.405C129.658 230.464 132.41 231.5 135.5 231.5C138.59 231.5 141.342 230.464 143.738 228.405L143.749 228.395L143.76 228.385L236.226 138.668C236.226 138.667 236.227 138.667 236.227 138.666C243.175 132.033 249.297 124.735 254.591 116.775C265.181 101.183 270.5 85.8859 270.5 70.8922C270.5 48.9812 264.039 31.8204 251.064 19.4784C238.421 6.80675 220.809 0.5 198.3 0.5C186.645 0.5 174.359 4.50532 161.449 12.4689C152.632 17.7069 143.982 24.394 135.5 32.5263C127.017 24.3939 118.368 17.7067 109.551 12.4688C96.6408 4.50526 84.3545 0.5 72.7004 0.5C50.1871 0.5 32.4129 6.80852 19.4411 19.4785C6.79524 31.8216 0.5 48.9824 0.5 70.8922C0.5 86.2213 6.15217 102.016 17.4014 118.267C23.3468 126.876 29.1388 133.682 34.7797 138.673L127.24 228.385Z" fill="#EF6898" stroke="black"/>
<path fill-rule="evenodd" clip-rule="evenodd" d="M175.616 5.75871C183.441 2.58624 191.002 1 198.3 1C220.716 1 238.188 7.27873 250.715 19.8362C263.572 32.0632 270 49.0819 270 70.8922C270 85.7629 264.726 100.964 254.177 116.496C248.902 124.427 242.803 131.697 235.881 138.306L143.412 228.026C141.104 230.009 138.467 231 135.5 231C132.533 231 129.896 230.009 127.588 228.026L35.1195 138.306C29.5153 133.349 23.7463 126.575 17.8125 117.983C13.1656 111.27 9.48218 104.642 6.76184 98.0988C9.14526 103.446 12.2063 108.854 15.9447 114.323C21.4054 122.329 26.7144 128.641 31.8716 133.26L116.967 216.861C119.091 218.708 121.518 219.632 124.248 219.632C126.978 219.632 129.405 218.708 131.529 216.861L216.624 133.26C222.995 127.101 228.607 120.327 233.461 112.937C243.169 98.4646 248.023 84.3002 248.023 70.4437C248.023 50.1208 242.107 34.2628 230.276 22.8696C218.748 11.1685 202.669 5.31802 182.04 5.31802C179.923 5.31802 177.782 5.46492 175.616 5.75871ZM131.05 29.0777C123.911 22.6656 116.658 17.2719 109.292 12.8965C96.4355 4.96552 84.2383 1 72.7003 1C50.2837 1 32.6471 7.27873 19.7904 19.8362C15.6973 23.8314 12.2728 28.3381 9.51709 33.3564C11.8247 29.5187 14.574 26.0231 17.7649 22.8696C29.5963 11.1685 45.8267 5.31802 66.4558 5.31802C77.0737 5.31802 88.2986 9.01309 100.13 16.4032C108.321 21.33 116.36 27.6424 124.248 35.3405C126.503 33.1396 128.771 31.052 131.05 29.0777Z" fill="#EE4380"/>
<path fill-rule="evenodd" clip-rule="evenodd" d="M18.3076 21.3364C15.7947 31.7656 14.5382 43.4611 14.5382 56.4229C14.5382 76.7377 20.2229 97.715 31.5924 119.355C37.6116 130.837 43.4635 139.89 49.1483 146.515L66.6899 168.938L35.1195 138.306C29.5153 133.349 23.7463 126.575 17.8125 117.983C6.60413 101.79 1 86.0933 1 70.8922C1 49.96 6.76917 33.4415 18.3076 21.3364Z" fill="white"/>
</svg>
