<svg width="170" height="205" viewBox="0 0 170 205" fill="none" xmlns="http://www.w3.org/2000/svg">
<path d="M2.5981 112.599L83.9856 112.599L65.958 204H20.6257L2.5981 112.599Z" fill="#EF6898" stroke="#363636" stroke-width="2"/>
<path d="M58.9507 203.15L75.2177 113.449H82.8994L65.7286 203.15H58.9507Z" fill="#EE4380"/>
<path d="M22.567 203.15L5.06602 113.449H3.68437L21.1854 203.15H22.567Z" fill="white"/>
<path d="M3.08615 136.643H82.5765L74.2661 174.408H11.3965L3.08615 136.643Z" fill="white" stroke="#363636" stroke-width="2"/>
<path d="M4.72474 108.75L13.341 96.8785H73.2428L81.8591 108.75H4.72474Z" fill="white" stroke="#363636" stroke-width="2"/>
<mask id="path-6-inside-1" fill="white">
<rect y="107.9" width="86.5839" height="5.54855" rx="1"/>
</mask>
<rect y="107.9" width="86.5839" height="5.54855" rx="1" fill="white" stroke="#363636" stroke-width="4" mask="url(#path-6-inside-1)"/>
<path d="M86.0144 112.599L167.402 112.599L149.374 204H104.042L86.0144 112.599Z" fill="#EF6898" stroke="#363636" stroke-width="2"/>
<path d="M142.367 203.151L158.634 113.449H166.315L149.145 203.151H142.367Z" fill="#EE4380"/>
<path d="M105.983 203.151L88.4822 113.449H87.1005L104.601 203.151H105.983Z" fill="white"/>
<path d="M86.502 136.643H165.992L157.682 174.408H94.8124L86.502 136.643Z" fill="white" stroke="#363636" stroke-width="2"/>
<path d="M88.1406 108.75L96.7569 96.8786H156.659L165.275 108.75H88.1406Z" fill="white" stroke="#363636" stroke-width="2"/>
<mask id="path-12-inside-2" fill="white">
<rect x="83.416" y="107.9" width="86.5839" height="5.54855" rx="1"/>
</mask>
<rect x="83.416" y="107.9" width="86.5839" height="5.54855" rx="1" fill="white" stroke="#363636" stroke-width="4" mask="url(#path-12-inside-2)"/>
<path d="M37.6451 98.9974L131.299 98.9974L110.575 204H58.3684L37.6451 98.9974Z" fill="#EF6898" stroke="#363636" stroke-width="2"/>
<path d="M102.422 202.881L121.07 100.116H129.876L110.192 202.881H102.422Z" fill="#EE4380"/>
<path d="M60.7144 202.881L40.6522 100.116H39.0684L59.1305 202.881H60.7144Z" fill="white"/>
<path d="M38.2007 126.543L129.688 126.543L120.097 170.098H47.7914L38.2007 126.543Z" fill="white" stroke="#363636" stroke-width="2"/>
<path d="M39.9746 94.8786L50.0633 80.9871H118.881L128.97 94.8786H39.9746Z" fill="white" stroke="#363636" stroke-width="2"/>
<mask id="path-18-inside-3" fill="white">
<rect x="34.8447" y="93.7597" width="99.2547" height="6.35659" rx="1"/>
</mask>
<rect x="34.8447" y="93.7597" width="99.2547" height="6.35659" rx="1" fill="white" stroke="#363636" stroke-width="4" mask="url(#path-18-inside-3)"/>
<path d="M69.6151 36.9681C52.9697 52.4358 56.9464 71.2094 63.882 78.3979C59.2534 62.4344 53.6105 57.7325 74.969 41.8475C96.9493 25.5002 76.6821 1.86946 63.882 0C75.7204 5.70124 86.2606 21.5004 69.6151 36.9681Z" fill="#E1E1E1" fill-opacity="0.23"/>
<path d="M88.6955 43.9664C70.9701 54.1232 64.0132 65.9143 68.6334 73.6305C67.8149 58.695 71.6919 58.8236 93.6325 49.2636C116.212 39.4252 104.471 7.96018 93.6325 3.70802C102.851 11.1219 106.421 33.8096 88.6955 43.9664Z" fill="#E1E1E1" fill-opacity="0.23"/>
<path d="M52.325 37.4405C38.083 53.5931 47.9058 71.1395 54.5975 77.8936C49.5112 62.342 41.1636 59.1844 59.6583 42.3773C78.6914 25.0808 50.257 4.9003 38.5403 3.70801C49.5973 8.73954 66.567 21.2878 52.325 37.4405Z" fill="#E1E1E1" fill-opacity="0.23"/>
</svg>
