<svg width="161" height="194" viewBox="0 0 161 194" fill="none" xmlns="http://www.w3.org/2000/svg">
<path d="M2.5258 106.839L2.5258 106.839H79.4742L62.4232 193H19.5768L2.5258 106.839Z" fill="#EF6898" stroke="#363636" stroke-width="2"/>
<path d="M55.8298 192.254L71.2356 107.585H78.5106L62.2489 192.254H55.8298Z" fill="#EE4380"/>
<path d="M21.3723 192.254L4.79788 107.585H3.48937L20.0638 192.254H21.3723Z" fill="white"/>
<path d="M2.98956 129.534L2.98956 129.534L78.1381 129.534L70.2924 165.068L10.8352 165.068L2.98956 129.534Z" fill="white" stroke="#363636" stroke-width="2"/>
<path d="M4.58231 103.093L12.6607 92H69.3393L77.4177 103.093H4.58231Z" fill="white" stroke="#363636" stroke-width="2"/>
<mask id="path-6-inside-1" fill="white">
<rect y="102.347" width="82" height="5.23729" rx="1"/>
</mask>
<rect y="102.347" width="82" height="5.23729" rx="1" fill="white" stroke="#363636" stroke-width="4" mask="url(#path-6-inside-1)"/>
<path d="M81.5258 106.839L81.5258 106.839H158.474L141.423 193H98.5768L81.5258 106.839Z" fill="#EF6898" stroke="#363636" stroke-width="2"/>
<path d="M134.83 192.254L150.236 107.585H157.511L141.249 192.254H134.83Z" fill="#EE4380"/>
<path d="M100.372 192.254L83.7979 107.585H82.4894L99.0638 192.254H100.372Z" fill="white"/>
<path d="M81.9896 129.534L81.9896 129.534L157.138 129.534L149.292 165.068L89.8352 165.068L81.9896 129.534Z" fill="white" stroke="#363636" stroke-width="2"/>
<path d="M83.5823 103.093L91.6607 92H148.339L156.418 103.093H83.5823Z" fill="white" stroke="#363636" stroke-width="2"/>
<mask id="path-12-inside-2" fill="white">
<rect x="79" y="102.347" width="82" height="5.23729" rx="1"/>
</mask>
<rect x="79" y="102.347" width="82" height="5.23729" rx="1" fill="white" stroke="#363636" stroke-width="4" mask="url(#path-12-inside-2)"/>
<path d="M35.7174 94L124.283 94L104.679 193H55.3214L35.7174 94Z" fill="#EF6898" stroke="#363636" stroke-width="2"/>
<path d="M97 192L114.66 95H123L104.358 192H97Z" fill="#EE4380"/>
<path d="M57.5 192L38.5 95H37L56 192H57.5Z" fill="white"/>
<path d="M36.245 120L36.245 120H122.755L113.697 161H45.3032L36.245 120Z" fill="white" stroke="#363636" stroke-width="2"/>
<path d="M58.4394 148.405C58.1987 147.634 58.1895 146.865 58.4118 146.101C58.634 145.336 59.0249 144.682 59.5845 144.138C60.1417 143.587 60.7907 143.196 61.5314 142.965C62.2188 142.751 62.9303 142.788 63.6661 143.078C63.7439 143.113 63.7959 143.172 63.8221 143.256C63.8602 143.378 63.8463 143.508 63.7804 143.646C63.7121 143.776 63.6245 143.858 63.5176 143.892C63.4412 143.915 63.3679 143.909 63.2978 143.872C62.8311 143.666 62.3229 143.648 61.773 143.82C60.765 144.134 60.0338 144.719 59.5796 145.573C59.1254 146.427 59.0305 147.278 59.295 148.125C59.4308 148.561 59.6041 148.955 59.8149 149.308C60.0309 149.651 60.2933 149.955 60.6019 150.219C60.9158 150.473 61.2935 150.636 61.7349 150.708C62.184 150.777 62.6682 150.731 63.1875 150.569C63.8824 150.352 64.3357 149.938 64.5474 149.328C64.7668 148.714 64.7625 148.016 64.5348 147.232L62.2322 147.951C62.026 148.015 61.8777 147.902 61.7871 147.612C61.7514 147.497 61.7483 147.393 61.7779 147.3C61.8052 147.2 61.8685 147.134 61.9677 147.103L64.7743 146.227C64.8965 146.189 64.991 146.21 65.0577 146.29C65.1221 146.362 65.1853 146.497 65.2473 146.696C65.6023 147.834 65.6362 148.829 65.349 149.681C65.0695 150.531 64.4944 151.091 63.6238 151.363C62.967 151.568 62.3471 151.636 61.7639 151.566C61.1807 151.497 60.6745 151.311 60.2451 151.009C59.8233 150.705 59.461 150.336 59.1582 149.903C58.8529 149.462 58.6133 148.962 58.4394 148.405ZM67.4537 149.703L65.8703 144.628C65.8059 144.422 65.9189 144.274 66.2091 144.183C66.3236 144.147 66.4274 144.144 66.5205 144.174C66.6211 144.201 66.687 144.264 66.718 144.364L67.1647 145.796C67.2595 145.079 67.4326 144.505 67.6838 144.075C67.9426 143.642 68.3661 143.334 68.9541 143.151C69.3665 143.022 69.7994 142.946 70.2528 142.921C70.5076 142.959 70.6636 143.07 70.7208 143.253C70.7613 143.383 70.7632 143.483 70.7264 143.553C70.6896 143.623 70.6125 143.685 70.4951 143.738C70.077 143.768 69.7458 143.821 69.5014 143.897C68.9363 144.074 68.5078 144.513 68.2159 145.216C67.924 145.919 67.7761 146.761 67.7724 147.743L68.3014 149.438C68.3323 149.538 68.3153 149.631 68.2504 149.718C68.1831 149.798 68.0921 149.856 67.9776 149.891C67.695 149.98 67.5204 149.917 67.4537 149.703ZM71.8422 146.398C71.5229 145.374 71.6486 144.367 72.2193 143.376C72.7901 142.385 73.5833 141.731 74.599 141.414C75.294 141.198 75.968 141.276 76.6212 141.651C77.2744 142.025 77.7058 142.549 77.9155 143.221L78.8405 146.225C78.8715 146.325 78.8469 146.42 78.7666 146.512C78.6917 146.595 78.5969 146.653 78.4824 146.689C78.2303 146.768 78.071 146.7 78.0043 146.486L77.4002 144.55C77.0318 145.545 76.6211 146.31 76.1679 146.846C75.7224 147.379 75.2018 147.738 74.6061 147.924C74.0563 148.095 73.5022 148.025 72.944 147.713C72.3834 147.394 72.0161 146.955 71.8422 146.398ZM72.6741 146.163C72.8099 146.599 73.0663 146.883 73.4433 147.017C73.8179 147.143 74.177 147.153 74.5206 147.045C74.9178 146.921 75.3114 146.585 75.7015 146.036C76.0893 145.479 76.3761 144.908 76.562 144.322C76.7532 143.726 76.8059 143.29 76.7201 143.015C76.6486 142.786 76.5167 142.605 76.3245 142.473C76.1375 142.33 75.9316 142.247 75.7068 142.225C75.4897 142.201 75.2949 142.195 75.1227 142.206C74.948 142.211 74.8072 142.229 74.7003 142.263C73.9519 142.496 73.3663 143.01 72.9436 143.804C72.5185 144.59 72.4287 145.377 72.6741 146.163ZM79.0791 143.31C78.8742 142.653 78.8735 142.033 79.077 141.45C79.2782 140.86 79.5936 140.38 80.0233 140.011C80.453 139.642 80.939 139.373 81.4812 139.204C82.1685 138.99 82.88 139.028 83.6158 139.318C83.6936 139.352 83.7456 139.411 83.7718 139.495C83.8099 139.617 83.796 139.747 83.7301 139.885C83.6618 140.016 83.5742 140.097 83.4673 140.131C83.3909 140.155 83.3177 140.148 83.2475 140.111C82.7809 139.905 82.2726 139.888 81.7228 140.059C80.9438 140.302 80.4067 140.729 80.1115 141.341C79.8239 141.951 79.7636 142.522 79.9304 143.057C80.0995 143.599 80.5064 144.017 81.1511 144.31C81.7933 144.596 82.4428 144.636 83.0996 144.431C83.7716 144.222 84.2426 143.811 84.5125 143.199C84.5703 143.088 84.6298 143.024 84.6908 143.005C84.8054 142.969 84.934 142.992 85.0767 143.073C85.2193 143.154 85.3073 143.248 85.3407 143.355C85.3621 143.424 85.3545 143.493 85.3177 143.563C84.9393 144.419 84.3072 144.985 83.4213 145.261C82.482 145.554 81.5884 145.511 80.7405 145.13C79.8902 144.741 79.3364 144.135 79.0791 143.31ZM86.4716 143.769L84.881 138.671C84.8167 138.465 84.9296 138.317 85.2198 138.226C85.3344 138.191 85.4382 138.187 85.5312 138.217C85.6319 138.244 85.6977 138.308 85.7287 138.407L87.3193 143.505C87.3502 143.604 87.3333 143.697 87.2683 143.784C87.201 143.864 87.11 143.922 86.9955 143.958C86.7129 144.046 86.5383 143.983 86.4716 143.769ZM84.327 136.896L84.2627 136.69C84.1983 136.483 84.3113 136.335 84.6015 136.245C84.716 136.209 84.8198 136.206 84.9129 136.235C85.0136 136.263 85.0794 136.326 85.1104 136.425L85.1747 136.631C85.2057 136.731 85.1887 136.824 85.1238 136.911C85.0564 136.991 84.9655 137.049 84.8509 137.084C84.5684 137.172 84.3937 137.11 84.327 136.896ZM87.8953 141.389C87.576 140.366 87.7017 139.358 88.2725 138.367C88.8432 137.376 89.6364 136.723 90.6521 136.406C91.3471 136.189 92.0211 136.268 92.6743 136.642C93.3275 137.016 93.7589 137.54 93.9686 138.212L94.8936 141.217C94.9246 141.316 94.9 141.412 94.8198 141.504C94.7448 141.586 94.65 141.645 94.5355 141.68C94.2835 141.759 94.1241 141.691 94.0574 141.478L93.4533 139.542C93.0849 140.536 92.6742 141.302 92.221 141.837C91.7755 142.37 91.255 142.729 90.6593 142.915C90.1094 143.086 89.5554 143.016 88.9971 142.704C88.4365 142.385 88.0692 141.946 87.8953 141.389ZM88.7272 141.154C88.8631 141.59 89.1194 141.874 89.4964 142.008C89.871 142.134 90.2301 142.144 90.5738 142.037C90.9709 141.913 91.3645 141.576 91.7547 141.027C92.1424 140.47 92.4293 139.899 92.6152 139.313C92.8063 138.717 92.859 138.281 92.7732 138.006C92.7017 137.777 92.5699 137.596 92.3776 137.464C92.1906 137.321 91.9847 137.238 91.7599 137.216C91.5428 137.192 91.3481 137.186 91.1758 137.198C91.0011 137.202 90.8603 137.221 90.7534 137.254C90.005 137.487 89.4194 138.001 88.9967 138.795C88.5716 139.581 88.4818 140.368 88.7272 141.154ZM95.6905 140.05C95.6596 139.951 95.6682 139.831 95.7165 139.69C95.7724 139.547 95.8528 139.442 95.9578 139.376C96.0113 139.359 96.0404 139.359 96.0452 139.374C96.373 139.565 96.7898 139.665 97.2957 139.675C97.7991 139.677 98.1843 139.649 98.4511 139.591C98.7255 139.531 98.9773 139.465 99.2064 139.393C100.199 139.084 100.601 138.627 100.413 138.024C100.349 137.817 100.221 137.677 100.03 137.603C99.8448 137.518 99.615 137.493 99.3411 137.529C99.0748 137.561 98.8094 137.611 98.545 137.676C98.2806 137.742 97.9944 137.819 97.6866 137.906C97.3763 137.987 97.1363 138.036 96.9664 138.056C96.5048 138.108 96.0644 138.052 95.645 137.89C95.2231 137.72 94.9551 137.451 94.8407 137.085C94.6596 136.504 94.8116 135.971 95.2967 135.484C95.787 134.988 96.3835 134.63 97.0861 134.411C97.5596 134.263 98.0936 134.188 98.6883 134.187C99.2805 134.179 99.7639 134.304 100.138 134.564C100.151 134.577 100.161 134.595 100.168 134.618C100.199 134.717 100.19 134.85 100.141 135.016C100.09 135.175 100.022 135.267 99.9384 135.293C99.862 135.317 99.7666 135.28 99.6521 135.181C99.164 134.906 98.3739 134.939 97.2818 135.28C96.8313 135.42 96.4274 135.63 96.0703 135.909C95.7132 136.188 95.5811 136.477 95.6741 136.775C95.7527 137.027 95.9879 137.163 96.3797 137.183C96.7692 137.195 97.1624 137.14 97.5595 137.016C97.8421 136.928 98.08 136.858 98.2734 136.806C98.4667 136.754 98.7067 136.704 98.9936 136.656C99.278 136.601 99.525 136.587 99.7345 136.614C99.9416 136.633 100.153 136.68 100.369 136.755C100.583 136.823 100.765 136.95 100.916 137.138C101.072 137.315 101.194 137.545 101.282 137.828C101.404 138.217 101.384 138.584 101.223 138.927C101.067 139.261 100.849 139.526 100.566 139.723C100.294 139.925 99.9864 140.08 99.6427 140.187C98.0314 140.69 96.7633 140.709 95.8386 140.243C95.7685 140.206 95.7191 140.142 95.6905 140.05ZM102.726 138.421L102.626 138.1C102.573 137.932 102.6 137.777 102.707 137.635C102.821 137.49 102.996 137.381 103.233 137.307C103.439 137.243 103.63 137.238 103.806 137.292C103.98 137.338 104.094 137.449 104.149 137.625L104.249 137.946C104.304 138.121 104.272 138.286 104.152 138.441C104.031 138.588 103.871 138.692 103.672 138.754C103.435 138.828 103.233 138.837 103.064 138.78C102.893 138.716 102.781 138.597 102.726 138.421ZM102.282 135.831L100.656 130.619C100.592 130.413 100.705 130.265 100.995 130.174C101.109 130.138 101.213 130.135 101.306 130.165C101.407 130.192 101.473 130.255 101.504 130.355L103.13 135.567C103.161 135.666 103.144 135.76 103.079 135.847C103.012 135.926 102.921 135.984 102.806 136.02C102.524 136.108 102.349 136.045 102.282 135.831Z" fill="black"/>
<path d="M37.966 90L47.4389 77H112.561L122.034 90H37.966Z" fill="white" stroke="#363636" stroke-width="2"/>
<mask id="path-19-inside-3" fill="white">
<rect x="33" y="89" width="94" height="6" rx="1"/>
</mask>
<rect x="33" y="89" width="94" height="6" rx="1" fill="white" stroke="#363636" stroke-width="4" mask="url(#path-19-inside-3)"/>
<path d="M65.9296 35.3942C50.1654 49.9942 53.9316 67.7147 60.5 74.5C56.1164 59.432 50.7723 54.9938 71 40C91.8166 24.5697 72.6225 2.26459 60.5 0.5C71.7116 5.88141 81.6938 20.7942 65.9296 35.3942Z" fill="#E1E1E1" fill-opacity="0.23"/>
<path d="M84 42C67.213 51.587 60.6244 62.7167 65 70C64.2249 55.9023 67.8966 56.0237 88.6756 47C110.059 37.7136 98.9405 8.01363 88.6756 4C97.4061 10.998 100.787 32.413 84 42Z" fill="#E1E1E1" fill-opacity="0.23"/>
<path d="M49.5549 35.8401C36.0669 51.0867 45.3697 67.6487 51.7072 74.024C46.8901 59.3448 38.9844 56.3643 56.5 40.5C74.5255 24.1738 47.5964 5.1254 36.5 4C46.9717 8.74928 63.043 20.5936 49.5549 35.8401Z" fill="#E1E1E1" fill-opacity="0.23"/>
</svg>
