<svg width="78" height="67" viewBox="0 0 78 67" fill="none" xmlns="http://www.w3.org/2000/svg">
<path d="M36.4207 65.5288L36.4098 65.5182L10.2979 40.1706C8.67809 38.7355 7.02544 36.7894 5.33764 34.3444C2.1309 29.7093 0.5 25.1759 0.5 20.7522C0.5 14.489 2.301 9.53724 5.95839 5.96567L36.4207 65.5288ZM36.4207 65.5288L36.4321 65.5387M36.4207 65.5288L36.4321 65.5387M36.4321 65.5387C37.1721 66.1748 38.032 66.5 38.993 66.5C39.954 66.5 40.8138 66.1748 41.5538 65.5387L41.5652 65.5288M36.4321 65.5387L41.5652 65.5288M41.5652 65.5288L41.5761 65.5182M41.5652 65.5288L41.5761 65.5182M41.5761 65.5182L67.6934 40.1654C67.6939 40.1649 67.6944 40.1644 67.695 40.1639C69.6759 38.2716 71.4214 36.1898 72.9312 33.9189C75.9516 29.4691 77.4859 25.0776 77.4859 20.7522C77.4859 14.4877 75.6375 9.53595 71.8878 5.96552C68.2326 2.30252 63.1577 0.5 56.7323 0.5C53.3569 0.5 49.8224 1.66048 46.137 3.93435M41.5761 65.5182L46.137 3.93435M46.137 3.93435C43.707 5.37895 41.3259 7.20674 38.993 9.41414C36.6601 7.20675 34.2789 5.37897 31.8489 3.93437C28.1635 1.66049 24.629 0.5 21.2536 0.5C14.8249 0.5 9.70537 2.30421 5.95851 5.96555L46.137 3.93435Z" fill="#EF6898" stroke="black"/>
<path fill-rule="evenodd" clip-rule="evenodd" d="M50.3249 2.34482C52.5352 1.44827 54.671 1 56.7323 1C63.0645 1 67.9999 2.77441 71.5384 6.32327C75.1701 9.77875 76.9859 14.5883 76.9859 20.7522C76.9859 24.9547 75.496 29.2507 72.5162 33.6401C71.0263 35.8815 69.3035 37.936 67.348 39.8039L41.2279 65.1595C40.576 65.7198 39.831 66 38.993 66C38.1549 66 37.4099 65.7198 36.7581 65.1595L10.6379 39.8039C9.0549 38.403 7.42529 36.4885 5.74913 34.0603C4.43756 32.1646 3.39764 30.2929 2.62939 28.4453C3.3024 29.9551 4.16644 31.482 5.22145 33.026C6.76395 35.2885 8.26361 37.0724 9.72041 38.3778L33.7578 62.0042C34.3577 62.5263 35.0432 62.7874 35.8145 62.7874C36.5857 62.7874 37.2713 62.5263 37.8711 62.0042L61.9085 38.3778C63.7081 36.6374 65.2935 34.7229 66.6646 32.6344C69.4068 28.5443 70.7779 24.5414 70.7779 20.6254C70.7779 14.882 69.1069 10.4003 65.7648 7.18054C62.5084 3.87372 57.9666 2.22031 52.1393 2.22031C51.5413 2.22031 50.9365 2.26181 50.3249 2.34482ZM37.736 8.93497C35.7192 7.12289 33.6705 5.59857 31.5899 4.36206C27.9583 2.1207 24.5128 1 21.2536 1C14.9214 1 9.93953 2.77441 6.30786 6.32327C5.1521 7.4519 4.18509 8.72498 3.40681 10.1425C4.05847 9.05862 4.83473 8.07129 5.73561 7.18054C9.07771 3.87372 13.6624 2.22031 19.4896 2.22031C22.4889 2.22031 25.6596 3.26456 29.0017 5.35309C31.3155 6.74542 33.5864 8.52939 35.8145 10.7049C36.4515 10.0829 37.092 9.49295 37.736 8.93497Z" fill="#EE4380"/>
<path fill-rule="evenodd" clip-rule="evenodd" d="M5.88887 6.74739C5.17905 9.69472 4.82413 13 4.82413 16.663C4.82413 22.4042 6.42993 28.3325 9.64154 34.4481C11.3418 37.693 12.9948 40.2516 14.6006 42.1237L19.5555 48.4604L10.6379 39.8039C9.05489 38.403 7.42528 36.4885 5.74911 34.0603C2.58304 29.4842 1 25.0481 1 20.7522C1 14.8366 2.62962 10.1684 5.88887 6.74739Z" fill="white"/>
</svg>
