<svg width="118" height="222" viewBox="0 0 118 222" fill="none" xmlns="http://www.w3.org/2000/svg">
<path d="M16.7909 176.647C17.5707 209.715 22.0545 214.383 22.6394 217.301L42.3292 209.326C39.5219 205.591 34.7912 181.834 32.7767 170.423L16.7909 176.647Z" fill="white" stroke="#DF3773"/>
<path d="M57.5352 176.673C58.1899 209.878 61.955 214.565 62.4461 217.495L78.9796 209.487C76.6223 205.737 72.6499 181.882 70.9584 170.423L57.5352 176.673Z" fill="white" stroke="#DF3773"/>
<path d="M32.9514 220.645C51.0908 219.012 55.2754 211.955 49.5423 203.879C44.7473 197.125 35.2337 202.586 29.8524 207.145C25.3296 208.358 21.4696 210.79 20.105 211.854C20.1128 211.94 20.1217 212.026 20.1317 212.113C20.8062 217.995 27.0548 221.176 32.9514 220.645Z" fill="#EF6898"/>
<path d="M28.2928 208.548C28.7594 208.101 29.2828 207.628 29.8524 207.145M29.8524 207.145C35.2337 202.586 44.7473 197.125 49.5423 203.879C55.2754 211.955 51.0908 219.012 32.9514 220.645C27.0548 221.176 20.8062 217.995 20.1317 212.113C20.1217 212.026 20.1128 211.94 20.105 211.854C21.4696 210.79 25.3296 208.358 29.8524 207.145Z" stroke="#DF3773"/>
<path d="M77.7896 220.313C95.929 218.68 100.114 211.623 94.3805 203.547C89.5855 196.792 80.072 202.254 74.6907 206.813C70.1679 208.025 66.3079 210.457 64.9432 211.522C64.9511 211.608 64.96 211.694 64.9699 211.781C65.6444 217.663 71.8931 220.843 77.7896 220.313Z" fill="#EF6898"/>
<path d="M73.1311 208.215C73.5977 207.768 74.121 207.296 74.6907 206.813M74.6907 206.813C80.072 202.254 89.5855 196.792 94.3805 203.547C100.114 211.623 95.929 218.68 77.7896 220.313C71.8931 220.843 65.6444 217.663 64.9699 211.781C64.96 211.694 64.9511 211.608 64.9432 211.522C66.3079 210.457 70.1679 208.025 74.6907 206.813Z" stroke="#DF3773"/>
<path d="M1 173.34C8.79796 161.981 14.7764 150.063 16.7909 145.525C37.5854 142.802 78.3168 138.989 74.8857 145.525C70.5968 153.694 79.1746 173.34 79.1746 176.258C43.6159 199.6 12.2421 184.039 1 173.34Z" fill="white" stroke="#DF3773"/>
<path d="M72.936 85.6141C72.936 84.6804 76.705 73.6838 78.5895 68.3022L49.7371 58.2412C45.1552 69.4907 43.9869 86.0789 44.0835 94.9508L72.936 85.6141Z" fill="#EF6898"/>
<path d="M108.417 67.5242C112.004 59.588 110.431 51.2497 109.197 48.0727L102.958 31.1499L83.0734 25.3144C78.0047 29.8531 65.45 40.9534 55.7805 49.0452C53.3017 51.1196 51.3166 54.3632 49.7371 58.2412L78.5895 68.3022C76.705 73.6838 72.936 84.6804 72.936 85.6141L44.0835 94.9508C52.5313 103.963 69.6609 122.222 70.5966 123.155C71.2559 123.813 79.7194 119.713 87.3637 116.009C93.2814 113.141 98.7083 110.512 99.644 110.512C101.36 110.512 102.438 112.976 102.763 114.208C104.947 110.94 104.583 106.817 104.128 105.163C105.031 105.526 106.014 105.649 106.662 105.649C105.428 104.158 103.231 99.7359 104.323 93.9782C105.415 88.2206 103.218 82.7612 101.983 80.7512C103.855 82.7741 105.363 83.1502 105.882 83.0854C105.233 81.2051 104.83 75.4604 108.417 67.5242Z" fill="#EF6898"/>
<path d="M101.983 102.926C102.229 104.069 103.13 104.763 104.128 105.163M104.128 105.163C105.031 105.526 106.014 105.649 106.662 105.649C105.428 104.158 103.231 99.7359 104.323 93.9782C105.415 88.2206 103.218 82.7612 101.983 80.7512C103.855 82.7741 105.363 83.1502 105.882 83.0854C105.233 81.2051 104.83 75.4604 108.417 67.5242C112.004 59.588 110.431 51.2497 109.197 48.0727L102.958 31.1499L83.0734 25.3144C78.0047 29.8531 65.45 40.9534 55.7805 49.0452C53.3017 51.1196 51.3166 54.3632 49.7371 58.2412M104.128 105.163C104.583 106.817 104.947 110.94 102.763 114.208C102.438 112.976 101.36 110.512 99.644 110.512C98.7083 110.512 93.2814 113.141 87.3637 116.009C79.7194 119.713 71.2559 123.813 70.5966 123.155C69.6609 122.222 52.5313 103.963 44.0835 94.9508M44.0835 94.9508C43.9869 86.0789 45.1552 69.4907 49.7371 58.2412M44.0835 94.9508L72.936 85.6141C72.936 84.6804 76.705 73.6838 78.5895 68.3022L49.7371 58.2412" stroke="#DF3773"/>
<path d="M13.6716 146.886C33.3225 157.468 66.8277 152.138 80.5391 148.053C82.4237 126.268 94.4195 82.424 77.42 81.3347C56.1705 79.9731 42.1342 80.3621 37.4554 96.5069C37.4554 96.5069 30.0473 110.317 13.6716 146.886Z" fill="white" stroke="#DF3773"/>
<path d="M81.1242 83.2799C83.7755 81.1013 84.4383 77.1851 84.4383 75.4993C81.0592 73.8783 74.184 70.9865 73.7161 72.3871C73.2482 73.7876 70.6619 79.4544 69.4272 82.1128C72.2215 83.4096 78.4729 85.4585 81.1242 83.2799Z" fill="white" stroke="#DF3773"/>
<path d="M34.7262 103.898C29.1117 115.258 28.7478 125.36 29.2676 128.991L33.5565 129.769L47.9827 116.153C45.9033 107.335 40.3407 92.5387 34.7262 103.898Z" fill="white" stroke="#DF3773"/>
<path d="M102.958 72.7761C96.4081 79.7786 78.0049 76.6015 69.622 74.1377L64.1635 66.1626L62.6039 49.6288L89.7018 34.8456L110.171 42.4317C110.496 49.6288 109.509 65.7735 102.958 72.7761Z" fill="white" stroke="#DF3773"/>
<path d="M93.4059 57.7984C96.2002 59.4842 102.685 61.961 106.273 58.382" stroke="#DF3773" stroke-linecap="round" stroke-linejoin="round"/>
<path d="M90.0917 56.4368C89.7018 57.6687 89.2729 60.4827 90.6766 61.8832C92.4311 63.6339 89.8968 65.968 88.3372 64.4119" stroke="#DF3773" stroke-linecap="round" stroke-linejoin="round"/>
<path d="M84.8281 72.5815C86.6476 73.2299 90.8715 73.593 93.2109 69.8583" stroke="#DF3773" stroke-linecap="round" stroke-linejoin="round"/>
<path d="M92.8211 44.9604C87.9863 45.5829 83.2686 42.6262 81.514 41.0701L68.2575 36.0127C67.6077 30.0476 66.386 17.3393 66.6979 14.2271C67.0878 10.3368 67.6726 10.1422 73.3262 9.55869C77.849 9.09186 79.4995 6.12226 79.7595 4.69582C81.0072 5.94071 80.6692 8.19709 80.3443 9.16966C91.4564 4.30678 91.6514 9.71888 95.1605 9.16966C105.103 7.61355 105.883 12.2819 108.027 15.1996C109.743 17.5338 111.341 17.469 111.926 17.1448C111.926 17.9228 110.886 18.1174 110.366 18.1174C118.749 24.7309 115.63 29.7883 114.655 33.6786C113.876 36.7908 115.5 37.5689 116.41 37.5689C115.942 38.1913 114.915 38.0876 114.46 37.9579C115.565 39.3195 117.346 43.2098 115.63 47.8781C113.486 53.7136 116.41 54.4917 116.41 55.2697C114.226 55.4253 112.641 53.3894 112.121 52.352C111.341 52.9744 112.056 54.4268 112.511 55.0752C111.419 55.2308 110.626 53.5839 110.366 52.741C109.899 55.3864 112.511 56.5665 113.876 56.8258C111.406 57.15 106.312 56.4757 105.688 51.1849C105.064 45.8941 102.439 43.6637 101.204 43.2098C100.268 46.9445 103.153 47.6188 104.713 47.4891C96.72 51.5739 98.8645 44.1824 92.8211 44.9604Z" fill="#EF6898" stroke="#DF3773"/>
<path d="M42.3715 212.385C44.4322 209.028 48.7086 206.57 50.907 205.435C55.3258 204.333 65.0213 203.451 68.4524 208.742C69.5169 210.384 70.0585 212.024 70.2564 213.55C70.8875 218.415 65.6787 220.802 60.773 220.802H51.9484C46.2634 220.802 39.3975 217.23 42.3715 212.385Z" fill="#EF6898" stroke="#DF3773"/>
<path d="M71.4542 212.113C73.4728 208.378 77.8879 205.643 80.1365 204.394C84.5707 203.203 94.3 202.25 97.7431 207.966C98.8466 209.798 99.3901 211.629 99.572 213.324C100.12 218.431 94.8052 220.996 89.6689 220.996H81.548C75.6407 220.996 68.6454 217.31 71.4542 212.113Z" fill="#EF6898" stroke="#DF3773"/>
<path d="M50.1272 201.934C49.0355 182.949 50.0622 161.021 50.5171 152.333C65.6582 143.969 97.2659 129.691 102.569 139.495C107.871 149.298 104.778 191.041 102.569 210.687C93.055 217.534 81.449 210.168 76.8353 205.63C78.4598 205.695 81.709 203.529 81.709 194.348C80.9292 180.498 80.4743 164.851 80.3443 158.758C80.2058 158.757 80.0755 158.755 79.9544 158.752C75.4316 174.468 72.0915 200.572 70.9868 211.66C58.51 215.861 50.3222 209.909 47.7878 206.408C48.6976 205.824 50.1272 203.685 50.1272 201.934Z" fill="white"/>
<path d="M91.4564 156.612C87.9127 158.38 82.808 158.776 80.3443 158.758M80.3443 158.758C80.2058 158.757 80.0755 158.755 79.9544 158.752C75.4316 174.468 72.0915 200.572 70.9868 211.66C58.51 215.861 50.3222 209.909 47.7878 206.408C48.6976 205.824 50.1272 203.685 50.1272 201.934C49.0355 182.949 50.0622 161.021 50.5171 152.333C65.6582 143.969 97.2659 129.691 102.569 139.495C107.871 149.298 104.778 191.041 102.569 210.687C93.055 217.534 81.449 210.168 76.8352 205.63C78.4598 205.695 81.709 203.529 81.709 194.348C80.9292 180.498 80.4743 164.851 80.3443 158.758Z" stroke="#DF3773" stroke-linecap="round" stroke-linejoin="round"/>
<path d="M20.6898 94.7562C22.0544 79.195 31.8019 83.6688 42.1342 84.0579C45.2754 84.1761 47.784 84.7102 49.7372 85.4122C57.8499 85.6256 60.9202 83.5384 66.8927 80.5566H78.0048C83.4634 80.5566 97.3837 77.4444 98.8643 93.7836C100.031 106.66 99.6945 107.632 99.3683 106.481C103.154 120.224 105.791 134.09 106.662 139.495C90.1306 158.324 61.0442 155.51 48.5675 151.749C52.1546 129.185 43.1739 112.957 38.2352 107.663C30.3564 107.756 19.7643 105.31 20.6898 94.7562Z" fill="white"/>
<path d="M55.1958 89.1153C54.6317 88.1505 53.8311 86.1975 49.7372 85.4122M42.1342 107.4C40.9769 107.548 39.6498 107.646 38.2352 107.663M38.2352 107.663C30.3564 107.756 19.7643 105.31 20.6898 94.7562C22.0544 79.195 31.8019 83.6688 42.1342 84.0579C45.2754 84.1761 47.784 84.7102 49.7372 85.4122M38.2352 107.663C43.1739 112.957 52.1546 129.185 48.5675 151.749C61.0442 155.51 90.1306 158.324 106.662 139.495C105.79 134.083 103.147 120.188 99.3535 106.427M90.6765 86.1975C91.7162 86.3921 94.8094 90.3602 98.8643 104.676C99.0294 105.259 99.1925 105.843 99.3535 106.427M49.7372 85.4122C57.8499 85.6256 60.9202 83.5384 66.8927 80.5566C68.7772 80.5566 73.6379 80.5566 78.0048 80.5566C83.4634 80.5566 97.3837 77.4444 98.8643 93.7836C100.049 106.855 99.684 107.659 99.3535 106.427" stroke="#DF3773" stroke-linecap="round" stroke-linejoin="round"/>
<path d="M54.416 87.5592L49.1523 78.2225C52.9863 76.2773 61.0832 72.6593 62.7988 73.7486C64.5143 74.8379 67.0227 80.1676 68.0624 82.6963C67.5945 87.5203 58.7698 87.9482 54.416 87.5592Z" fill="white" stroke="#DF3773"/>
<path d="M18.9354 68.4967C25.6417 85.7697 48.5027 79.5841 59.0949 74.3322L64.5535 45.3494L20.1051 36.7908C16.921 40.1624 12.2292 51.2238 18.9354 68.4967Z" fill="white" stroke="#DF3773"/>
<path d="M58.51 6.64094C63.1887 8.8195 63.9685 11.1796 63.7736 12.0874C65.1382 11.9577 68.7643 12.3208 72.3513 14.8106C75.9384 17.3004 78.0049 16.8854 78.5897 16.3667C78.2778 18.7009 75.2106 17.9876 73.716 17.3393C84.2432 25.1199 77.0301 26.4815 81.5139 32.3169C85.9978 38.1524 82.8786 38.5414 83.4634 41.6536C83.9313 44.1434 85.6079 44.1175 86.3877 43.7933C86.3877 45.8163 84.4382 45.1549 83.4634 44.5714C88.1422 50.9904 86.7776 54.1026 84.6331 57.6039C82.4887 61.1051 84.6331 64.2174 83.8533 66.5516C83.2295 68.4189 84.1133 69.1451 84.6331 69.2748C82.4497 69.8972 80.7341 68.4967 80.1493 67.7187C79.0576 72.5426 75.2756 76.0828 73.521 77.2499C75.3925 75.6938 74.1709 73.7486 73.3261 72.9706C70.8307 75.7716 70.5968 78.1576 70.7917 79.0005C68.2964 78.2225 67.8025 75.4344 67.8675 74.1376C66.152 77.0943 61.9541 79.1302 60.0695 79.7786C61.0053 78.5337 60.9793 77.4444 60.8493 77.0554C58.9778 79.7008 56.3005 81.0105 55.1958 81.3347C55.5077 79.9342 54.2861 78.5467 53.6362 78.0279C52.6615 79.7786 53.2463 81.5292 53.2463 81.7237C49.9712 81.7237 47.7228 79.1302 47.008 77.8334C47.4758 80.012 46.5531 81.5941 46.0332 82.1128C44.1617 77.9112 41.6144 76.0828 40.5746 75.6938C39.6389 76.6274 40.8346 77.8983 41.5494 78.417C37.0754 79.0327 36.5566 76.2732 36.8604 74.77C36.5244 76.3017 34.9129 77.4485 34.1413 77.8334C34.5962 77.3796 35.233 75.9272 34.1413 73.7486C33.0496 71.57 33.6864 69.988 34.1413 69.4693C35.389 57.954 29.0726 56.6313 25.7585 57.4094C25.6026 58.343 24.3939 59.2248 23.809 59.549C23.809 58.3041 22.8993 57.6039 22.4444 57.4094C21.3527 58.343 21.9895 59.6139 22.4444 60.1326C17.2977 57.3316 16.5309 52.6113 16.7909 50.6013C15.8551 53.7136 13.0218 53.5839 11.7222 53.13C14.0616 52.1964 14.2565 50.2771 14.0616 49.4342C0.999988 36.4017 14.4889 35.0401 14.0616 28.8156C13.0868 14.6161 26.7333 15.9777 32.1918 9.55866C37.6504 3.13967 43.3039 11.6983 45.8383 8.7806C47.8657 6.44642 53.3113 7.54867 55.7807 8.39157C52.9734 6.36861 54.0911 2.62096 55.0009 1C55.2608 2.55612 56.3265 5.86288 58.51 6.64094Z" fill="#EF6898" stroke="#DF3773" stroke-linecap="round" stroke-linejoin="round"/>
<path d="M31.412 51.7684C27.513 50.6911 25.4985 57.4093 26.7332 61.2996L22.2494 64.6064L24.5888 70.0528L29.8524 67.9131C38.8201 75.6937 44.0837 55.2697 31.412 51.7684Z" fill="white" stroke="#DF3773"/>
<path d="M29.0726 59.549C27.7079 56.4368 32.9716 50.2123 36.2857 61.6887C35.116 61.6239 31.0221 60.9106 31.0221 64.4119C31.0221 67.6199 33.8164 67.2648 34.7261 66.7461" stroke="#DF3773" stroke-linecap="round" stroke-linejoin="round"/>
<rect x="22.0546" y="60.7161" width="7.79796" height="10.1148" fill="white"/>
<path d="M51.102 93.2001C48.3727 95.5343 49.1525 101.175 49.3474 102.537C39.6 111.485 22.5498 126.821 31.2172 133.27C42.7192 141.829 51.102 127.24 61.2393 109.539C71.9615 107.011 77.2945 98.2016 76.0555 95.7288C74.8858 93.3946 71.5717 97.674 68.6474 99.8136C73.1313 95.7083 78.9065 90.3797 77.0302 88.3373C74.8858 86.0031 69.6222 92.6166 65.5282 94.7563C68.6474 91.255 73.5212 88.3373 71.3767 86.5866C68.7294 84.4255 61.6293 91.255 55.001 94.9508C55.7807 93.9782 59.0949 88.7263 57.3403 87.5592C55.5858 86.3921 53.8313 90.866 51.102 93.2001Z" fill="white"/>
<path d="M92.8211 100.786C93.9128 99.0917 96.5251 99.8136 99.8393 102.537C94.5757 97.0904 92.0413 100.203 91.4565 96.7014C90.6767 92.033 97.8898 95.275 100.619 97.4795C94.117 92.2275 91.4565 94.5617 91.4565 91.4495C91.4565 87.1146 99.2544 90.2824 102.179 92.2275C104.518 94.5617 103.158 96.1717 103.543 97.4795C104.518 100.786 102.569 100.981 103.153 103.12C103.738 105.26 102.764 107.983 100.424 107.205C96.6114 105.937 91.0666 103.509 92.8211 100.786Z" fill="white"/>
<path d="M51.102 93.2001C48.3727 95.5343 49.1525 101.175 49.3474 102.537C39.6 111.485 22.5498 126.821 31.2172 133.27C42.7192 141.829 51.102 127.24 61.2393 109.539C71.9615 107.011 77.2945 98.2016 76.0555 95.7288C74.8858 93.3946 71.5717 97.674 68.6474 99.8136C73.1313 95.7083 78.9065 90.3797 77.0302 88.3373C74.8858 86.0031 69.6222 92.6166 65.5282 94.7563C68.6474 91.255 73.5212 88.3373 71.3767 86.5866C68.7294 84.4255 61.6293 91.255 55.001 94.9508C55.7807 93.9782 59.0949 88.7263 57.3403 87.5592C55.5858 86.3921 53.8313 90.866 51.102 93.2001Z" stroke="#DF3773" stroke-linecap="round" stroke-linejoin="round"/>
<path d="M92.8211 100.786C93.9128 99.0917 96.5251 99.8136 99.8393 102.537C94.5757 97.0904 92.0413 100.203 91.4565 96.7014C90.6767 92.033 97.8898 95.275 100.619 97.4795C94.117 92.2275 91.4565 94.5617 91.4565 91.4495C91.4565 87.1146 99.2544 90.2824 102.179 92.2275C104.518 94.5617 103.158 96.1717 103.543 97.4795C104.518 100.786 102.569 100.981 103.153 103.12C103.738 105.26 102.764 107.983 100.424 107.205C96.6114 105.937 91.0666 103.509 92.8211 100.786Z" stroke="#DF3773" stroke-linecap="round" stroke-linejoin="round"/>
</svg>
