<svg version="1.1" xmlns="http://www.w3.org/2000/svg" xmlns:xlink="http://www.w3.org/1999/xlink" enable-background="new 0 0 1000 1000" xml:space="preserve" width="1000" height="1000"><rect id="backgroundrect" width="100%" height="100%" x="0" y="0" fill="none" stroke="none"/>
<metadata> Svg Vector Icons : http://www.onlinewebfonts.com/icon </metadata>

<g class="currentLayer" style=""><title>Layer 1</title><g id="svg_1" class="selected" fill-opacity="1" fill="#ee4380"><path d="M958.4000244140625,497.9592714905739 c-17.5,0 -31.600000381469727,14.199999809265137 -31.600000381469727,31.600000381469727 v318.79998779296875 c0,42.099998474121094 -33.70000076293945,76.30000305175781 -75,76.30000305175781 H148.3000030517578 c-41.400001525878906,0 -75.0999984741211,-34.20000076293945 -75.0999984741211,-76.30000305175781 V178.95925623178482 c0,-42.099998474121094 33.70000076293945,-76.30000305175781 75.0999984741211,-76.30000305175781 h340.79998779296875 c17.5,0 31.600000381469727,-14.199999809265137 31.600000381469727,-31.600000381469727 c0,-17.5 -14.199999809265137,-31.600000381469727 -31.600000381469727,-31.600000381469727 H148.3000030517578 C72,39.459260046482086 10,101.95925623178482 10,178.95925623178482 v669.4000244140625 c0,76.9000015258789 62,139.5 138.3000030517578,139.5 h703.4000244140625 C928,987.8592348694801 990,925.2592592835426 990,848.3592348694801 V529.5592470765114 C990,512.0592470765114 975.7999877929688,497.9592714905739 958.4000244140625,497.9592714905739 z" id="svg_2" fill="#ee4380"/><path d="M690.5,139.25925928354263 L273.3999938964844,556.4592714905739 c-0.20000000298023224,0.20000000298023224 -0.4000000059604645,0.5 -0.6000000238418579,0.699999988079071 c-0.800000011920929,0.800000011920929 -1.399999976158142,1.7000000476837158 -2.0999999046325684,2.5999999046325684 c-0.6000000238418579,0.800000011920929 -1.2000000476837158,1.600000023841858 -1.7000000476837158,2.4000000953674316 c-0.5,0.800000011920929 -0.8999999761581421,1.7000000476837158 -1.399999976158142,2.5999999046325684 c-0.5,1 -1,2 -1.399999976158142,3.0999999046325684 c-0.10000000149011612,0.30000001192092896 -0.30000001192092896,0.6000000238418579 -0.4000000059604645,0.8999999761581421 l-59.599998474121094,178.8000030517578 c-0.10000000149011612,0.30000001192092896 -0.10000000149011612,0.5 -0.20000000298023224,0.800000011920929 c-0.30000001192092896,1.100000023841858 -0.5,2.200000047683716 -0.800000011920929,3.4000000953674316 c-0.20000000298023224,0.8999999761581421 -0.4000000059604645,1.7999999523162842 -0.5,2.799999952316284 c-0.10000000149011612,1 -0.10000000149011612,2.0999999046325684 -0.10000000149011612,3.0999999046325684 c0,1 0,2.0999999046325684 0.10000000149011612,3.0999999046325684 c0.10000000149011612,0.8999999761581421 0.30000001192092896,1.899999976158142 0.5,2.799999952316284 c0.20000000298023224,1.100000023841858 0.4000000059604645,2.200000047683716 0.699999988079071,3.299999952316284 c0.10000000149011612,0.30000001192092896 0.10000000149011612,0.5 0.20000000298023224,0.800000011920929 c0.10000000149011612,0.30000001192092896 0.30000001192092896,0.6000000238418579 0.5,0.8999999761581421 c1,2.700000047683716 2.299999952316284,5.199999809265137 3.9000000953674316,7.5 c0.20000000298023224,0.20000000298023224 0.30000001192092896,0.5 0.4000000059604645,0.699999988079071 c1.7000000476837158,2.299999952316284 3.799999952316284,4.199999809265137 6.099999904632568,5.900000095367432 c0.5,0.4000000059604645 1.100000023841858,0.800000011920929 1.600000023841858,1.2000000476837158 c2.299999952316284,1.5 4.699999809265137,2.9000000953674316 7.400000095367432,3.799999952316284 c0,0 0.10000000149011612,0 0.10000000149011612,0 c3.0999999046325684,1 6.5,1.600000023841858 9.800000190734863,1.600000023841858 l0,0 l0,0 c3.4000000953674316,0 6.699999809265137,-0.6000000238418579 9.800000190734863,-1.600000023841858 c0,0 0.10000000149011612,0 0.20000000298023224,0 l178.8000030517578,-59.599998474121094 c0.30000001192092896,-0.10000000149011612 0.6000000238418579,-0.30000001192092896 0.8999999761581421,-0.4000000059604645 c1.100000023841858,-0.4000000059604645 2.0999999046325684,-0.8999999761581421 3.0999999046325684,-1.399999976158142 c0.8999999761581421,-0.4000000059604645 1.7999999523162842,-0.8999999761581421 2.5999999046325684,-1.399999976158142 c0.800000011920929,-0.5 1.600000023841858,-1.100000023841858 2.4000000953674316,-1.7000000476837158 c0.8999999761581421,-0.699999988079071 1.7999999523162842,-1.399999976158142 2.700000047683716,-2.200000047683716 c0.20000000298023224,-0.20000000298023224 0.5,-0.4000000059604645 0.699999988079071,-0.6000000238418579 l417.20001220703125,-417.20001220703125 c0,0 0,0 0.10000000149011612,0 c0,0 0,0 0,-0.10000000149011612 l119.19999694824219,-119.19999694824219 c12.300000190734863,-12.300000190734863 12.300000190734863,-32.400001525878906 0,-44.70000076293945 L854.5,19.959260046482086 c-12.300000190734863,-12.300000190734863 -32.400001525878906,-12.300000190734863 -44.70000076293945,0 L690.7000122070312,139.05926233530045 c0,0 -0.10000000149011612,0 -0.10000000149011612,0.10000000149011612 C690.5999755859375,139.159253180027 690.5999755859375,139.25925928354263 690.5,139.25925928354263 zM832.2000122070312,87.05926233530045 l74.5,74.5 l-74.5,74.5 l-74.5,-74.5 L832.2000122070312,87.05926233530045 zM787.5,280.75925928354263 L397.8999938964844,670.4592714905739 l-111.80000305175781,37.29999923706055 l37.29999923706055,-111.80000305175781 L713,206.25925928354263 L787.5,280.75925928354263 z" id="svg_3" fill="#ee4380"/></g></g></svg>