<svg width="8" height="8" viewBox="0 0 8 8" fill="none" xmlns="http://www.w3.org/2000/svg">
<path d="M5.03448 4L7.7931 1.24138C8.06896 0.965517 8.06896 0.482759 7.7931 0.206897C7.51724 -0.0689655 7.03448 -0.0689655 6.75862 0.206897L4 2.96552L1.24138 0.206897C0.965517 -0.0689655 0.482759 -0.0689655 0.206897 0.206897C-0.0689655 0.482759 -0.0689655 0.965517 0.206897 1.24138L2.96552 4L0.206897 6.75862C-0.0689655 7.03448 -0.0689655 7.51724 0.206897 7.7931C0.482759 8.06896 0.965517 8.06896 1.24138 7.7931L4 5.03448L6.75862 7.7931C7.03448 8.06896 7.51724 8.06896 7.7931 7.7931C8.06896 7.51724 8.06896 7.03448 7.7931 6.75862L5.03448 4Z" fill="#616974"/>
</svg>
