<svg width="11" height="12" viewBox="0 0 11 12" fill="none" xmlns="http://www.w3.org/2000/svg">
<path d="M0.759375 11.392C0.759375 11.3173 0.791375 11.248 0.855375 11.184L4.72738 6.432L0.823375 1.648C0.780708 1.616 0.759375 1.54667 0.759375 1.44C0.759375 1.26933 0.844708 1.12 1.01538 0.992C1.18604 0.864 1.35137 0.8 1.51137 0.8C1.58604 0.8 1.69804 0.864 1.84738 0.992L5.49538 5.488L9.15938 0.992C9.30871 0.864 9.42071 0.8 9.49537 0.8C9.65538 0.8 9.82071 0.864 9.99137 0.992C10.162 1.12 10.2474 1.26933 10.2474 1.44C10.2474 1.54667 10.226 1.616 10.1834 1.648L6.27938 6.432L10.1514 11.184C10.2154 11.248 10.2474 11.3173 10.2474 11.392C10.2474 11.5307 10.162 11.6693 9.99137 11.808C9.82071 11.936 9.66604 12 9.52738 12C9.38871 12 9.25537 11.9413 9.12737 11.824L5.49538 7.392L1.87937 11.824C1.75137 11.9413 1.61804 12 1.47938 12C1.34071 12 1.18604 11.936 1.01538 11.808C0.844708 11.6693 0.759375 11.5307 0.759375 11.392Z" fill="black"/>
</svg>
