<svg version="1.1" xmlns="http://www.w3.org/2000/svg" xmlns:xlink="http://www.w3.org/1999/xlink" style="enable-background:new 0 0 512 512;" xml:space="preserve" width="512" height="512"><rect id="backgroundrect" width="100%" height="100%" x="0" y="0" fill="none" stroke="none"/>
















<g class="currentLayer" style=""><title>Layer 1</title><g id="svg_1" class="selected" fill-opacity="1" fill="#ee4380">
	<g id="svg_2" fill="#ee4380">
		<g id="svg_3" fill="#ee4380">
			<path d="M375.0260009765625,47.855303168296814 c-31.687999725341797,0 -62.59299850463867,12.083000183105469 -87.02300262451172,34.02399826049805 c-1.1089999675750732,0.9950000047683716 -1.9889999628067017,2.2149999141693115 -2.5880000591278076,3.5789999961853027 c-0.2800000011920929,0.6359999775886536 -0.5569999814033508,1.159999966621399 -0.8489999771118164,1.6030000448226929 l-34.15700149536133,51.5880012512207 c-2.315000057220459,3.496999979019165 -2.315000057220459,8.038999557495117 0,11.536999702453613 l34.15700149536133,51.5890007019043 c2.321000099182129,3.505000114440918 2.321000099182129,8.032999992370605 0.0010000000474974513,11.536999702453613 l-34.15800094604492,51.59199905395508 c-2.315000057220459,3.496999979019165 -2.315000057220459,8.038999557495117 0,11.536999702453613 l34.15700149536133,51.59000015258789 c2.321000099182129,3.505000114440918 2.321000099182129,8.032999992370605 0,11.53600025177002 l-34.159000396728516,51.599998474121094 c-2.313999891281128,3.496999979019165 -2.313999891281128,8.038999557495117 0.0010000000474974513,11.536999702453613 l30.229000091552734,45.66299819946289 c2.002000093460083,3.0239999294281006 5.322999954223633,4.681000232696533 8.722000122070312,4.681000232696533 c1.7680000066757202,0 3.559000015258789,-0.4490000009536743 5.196000099182129,-1.3890000581741333 c36.1870002746582,-20.783000946044922 88.68499755859375,-54.50600051879883 133.28900146484375,-97.14299774169922 C483.68499755859375,301.13429868221283 512,248.20630490779877 512,197.2003082036972 C512,114.85130155086517 450.5539855957031,47.855303168296814 375.0260009765625,47.855303168296814 zM292.614990234375,428.6003021001816 l-20.964000701904297,-31.667999267578125 l30.34000015258789,-45.83100128173828 c6.960000038146973,-10.51200008392334 6.959000110626221,-24.097000122070312 -0.0010000000474974513,-34.60900115966797 l-30.33799934387207,-45.821998596191406 l30.339000701904297,-45.823001861572266 c6.960000038146973,-10.512999534606934 6.960000038146973,-24.097000122070312 -0.0010000000474974513,-34.61000061035156 l-30.33799934387207,-45.82099914550781 l30.336000442504883,-45.81700134277344 c0.5289999842643738,-0.796999990940094 1.0199999809265137,-1.6260000467300415 1.4830000400543213,-2.500999927520752 c20.341999053955078,-17.650999069213867 45.672000885009766,-27.34600067138672 71.55599975585938,-27.34600067138672 c64.00399780273438,0.0010000000474974513 116.07599639892578,57.62300109863281 116.07599639892578,128.447998046875 C491.10198974609375,298.66728818416595 358.55499267578125,389.64031064510345 292.614990234375,428.6003021001816 z" id="svg_4" fill="#ee4380"/>
			<path d="M225.34500122070312,402.7003082036972 c-2.319999933242798,-3.503999948501587 -2.319999933242798,-8.031999588012695 0,-11.53600025177002 l34.15800094604492,-51.5989990234375 c2.313999891281128,-3.496999979019165 2.313999891281128,-8.038000106811523 -0.0010000000474974513,-11.53600025177002 l-34.15700149536133,-51.590999603271484 c-2.321000099182129,-3.505000114440918 -2.321000099182129,-8.032999992370605 -0.0010000000474974513,-11.536999702453613 l34.15800094604492,-51.59199905395508 c2.315000057220459,-3.496999979019165 2.315000057220459,-8.038999557495117 0,-11.536999702453613 l-34.15700149536133,-51.59000015258789 c-2.321000099182129,-3.503999948501587 -2.321000099182129,-8.031999588012695 0,-11.53600025177002 l16.854000091552734,-25.454999923706055 c2.4690001010894775,-3.7290000915527344 2.2899999618530273,-8.616999626159668 -0.4440000057220459,-12.156000137329102 c-26.110000610351562,-33.79800033569336 -64.302001953125,-53.18199920654297 -104.78099822998047,-53.18199920654297 C61.44599914550781,47.855303168296814 0,114.85130155086517 0,197.2003082036972 c0,57.8849983215332 36.172000885009766,117.87300109863281 107.51200103759766,178.29200744628906 c54.558998107910156,46.20899963378906 113.52400207519531,78.78600311279297 136.3419952392578,90.64900207519531 c1.527999997138977,0.7940000295639038 3.178999900817871,1.1779999732971191 4.815000057220459,1.1779999732971191 c2.8919999599456787,0 5.73799991607666,-1.1990000009536743 7.771999835968018,-3.4609999656677246 c3.186000108718872,-3.5399999618530273 3.575000047683716,-8.78499984741211 0.9459999799728394,-12.756999969482422 L225.34500122070312,402.7003082036972 zM121.01699829101562,359.54530942440033 C54.582000732421875,303.2792876958847 20.898000717163086,248.65830075740814 20.898000717163086,197.2003082036972 c0,-70.82499694824219 52.07099914550781,-128.44700622558594 116.07599639892578,-128.44700622558594 c31.624000549316406,0 61.69300079345703,14.244999885559082 83.54499816894531,39.332000732421875 l-12.597999572753906,19.025999069213867 c-6.961999893188477,10.513999938964844 -6.961999893188477,24.097999572753906 0,34.611000061035156 l30.33799934387207,45.82099914550781 l-30.339000701904297,45.823001861572266 c-6.960000038146973,10.512999534606934 -6.960000038146973,24.097000122070312 0.0010000000474974513,34.61000061035156 l30.33799934387207,45.823001861572266 l-30.34000015258789,45.83100128173828 c-6.958000183105469,10.51200008392334 -6.958000183105469,24.094999313354492 0,34.60599899291992 c0,0 0,0 0,0.0010000000474974513 l8.274999618530273,12.498000144958496 C189.2689971923828,410.68630063533783 154.2760009765625,387.71230161190033 121.01699829101562,359.54530942440033 z" id="svg_5" fill="#ee4380"/>
		</g>
	</g>
</g><g id="svg_6">
</g><g id="svg_7">
</g><g id="svg_8">
</g><g id="svg_9">
</g><g id="svg_10">
</g><g id="svg_11">
</g><g id="svg_12">
</g><g id="svg_13">
</g><g id="svg_14">
</g><g id="svg_15">
</g><g id="svg_16">
</g><g id="svg_17">
</g><g id="svg_18">
</g><g id="svg_19">
</g><g id="svg_20">
</g></g></svg>