<svg width="14" height="17" viewBox="0 0 14 17" fill="none" xmlns="http://www.w3.org/2000/svg">
<path d="M6.96904 7.51237C6.31849 7.51237 5.68255 7.31541 5.14164 6.94641C4.60073 6.57742 4.17914 6.05294 3.93019 5.43932C3.68123 4.8257 3.6161 4.15048 3.74301 3.49907C3.86993 2.84765 4.1832 2.24928 4.6432 1.77963C5.10321 1.30999 5.6893 0.990154 6.32734 0.860579C6.96539 0.731003 7.62675 0.797506 8.22778 1.05168C8.8288 1.30585 9.34251 1.73627 9.70394 2.28852C10.0654 2.84076 10.2583 3.49003 10.2583 4.15421C10.2572 5.04452 9.91035 5.89806 9.29373 6.52761C8.6771 7.15716 7.84108 7.5113 6.96904 7.51237Z" fill="white"/>
<path d="M6.9691 8.30644C6.16453 8.30644 5.37803 8.06286 4.70905 7.6065C4.04008 7.15014 3.51868 6.50149 3.21078 5.74259C2.90289 4.98369 2.82233 4.14861 2.97929 3.34297C3.13625 2.53732 3.52369 1.79729 4.09261 1.21645C4.66152 0.635614 5.38637 0.240058 6.17548 0.0798048C6.96459 -0.0804481 7.78252 0.00179948 8.52585 0.316147C9.26917 0.630494 9.9045 1.16282 10.3515 1.84582C10.7985 2.52881 11.0371 3.33179 11.0371 4.15322C11.036 5.2544 10.6071 6.31017 9.84444 7.08882C9.08177 7.86746 8.04767 8.30538 6.9691 8.30644ZM6.9691 1.58912C6.47238 1.58912 5.98681 1.7395 5.5738 2.02125C5.16079 2.303 4.83889 2.70345 4.6488 3.17198C4.45871 3.64051 4.40898 4.15607 4.50588 4.65345C4.60279 5.15084 4.84198 5.60772 5.19322 5.96631C5.54446 6.32491 5.99196 6.56912 6.47914 6.66805C6.96631 6.76699 7.47129 6.71621 7.9302 6.52214C8.38911 6.32807 8.78135 5.99942 9.05731 5.57776C9.33328 5.15609 9.48057 4.66035 9.48057 4.15322C9.47979 3.47342 9.21494 2.8217 8.74411 2.34101C8.27329 1.86032 7.63494 1.58992 6.9691 1.58912Z" fill="#EE4380"/>
<path d="M10.4139 16.1103H3.45147C3.34729 16.1115 3.24417 16.089 3.14963 16.0443C3.05509 15.9996 2.97153 15.9339 2.90507 15.852L0.8445 13.2256C0.794438 13.1637 0.769759 13.0845 0.775632 13.0045C0.781504 12.9245 0.817473 12.8499 0.876004 12.7964C1.95896 11.8234 3.91517 10.5057 6.91299 10.5057C9.96495 10.5057 12.1309 11.9621 13.0514 12.7843C13.1127 12.8382 13.1509 12.9146 13.1575 12.997C13.1641 13.0794 13.1387 13.1611 13.0868 13.2246L10.9504 15.86C10.8842 15.9391 10.8019 16.0025 10.7092 16.0457C10.6166 16.0889 10.5158 16.111 10.4139 16.1103Z" fill="white"/>
<path d="M10.4139 16.9044H3.45146C3.23067 16.905 3.01251 16.8554 2.81289 16.7591C2.61328 16.6627 2.43724 16.5221 2.29762 16.3475L0.240002 13.7221C0.0649621 13.5005 -0.0196264 13.2186 0.00384708 12.9349C0.0273205 12.6513 0.157047 12.3878 0.366018 12.1993C2.17652 10.572 4.44088 9.71161 6.91593 9.71161C9.34887 9.71179 11.7038 10.5881 13.5663 12.1863C13.7814 12.3762 13.9146 12.6449 13.9373 12.9344C13.9599 13.2238 13.8702 13.5107 13.6874 13.7332L11.5529 16.3716C11.4129 16.5403 11.2383 16.6754 11.0415 16.7674C10.8446 16.8595 10.6304 16.9062 10.4139 16.9044ZM1.74137 13.0949L3.51348 15.3544L10.3863 15.3152L12.1899 13.0899C10.6677 11.9275 8.8178 11.2995 6.91691 11.2997C4.95283 11.2997 3.21419 11.9038 1.74137 13.0949Z" fill="#EE4380"/>
</svg>
