<svg width="17" height="17" fill="none" xmlns="http://www.w3.org/2000/svg" style=""><rect id="backgroundrect" width="100%" height="100%" x="0" y="0" fill="none" stroke="none"/>






<g class="currentLayer" style=""><title>Layer 1</title><path d="M15.951899528503418,15.287099838256836 H0.5641210079193115 C0.25256600975990295,15.287099838256836 0,15.545000076293945 0,15.863100051879883 V16.291200637817383 C0,16.60930061340332 0.25256600975990295,16.86720085144043 0.5641210079193115,16.86720085144043 H15.951899528503418 C16.263500213623047,16.86720085144043 16.51609992980957,16.60930061340332 16.51609992980957,16.291200637817383 V15.863100051879883 C16.51609992980957,15.545000076293945 16.263500213623047,15.287099838256836 15.951899528503418,15.287099838256836 z" fill="#ee4380" id="svg_1" class="" fill-opacity="1"/><path d="M12.778900146484375,14.534299850463867 H7.481319904327393 V4.132140159606934 H12.778900146484375 V14.534299850463867 zM9.037830352783203,12.945199966430664 H11.222399711608887 V5.721260070800781 H9.037830352783203 V12.945199966430664 z" fill="#ee4380" id="svg_2" class="" fill-opacity="1"/><path d="M15.356399536132812,14.534299850463867 H11.221400260925293 V1.5077099800109863 C11.223799705505371,1.1063100099563599 11.3818998336792,0.7222350835800171 11.661100387573242,0.4396280348300934 C11.940299987792969,0.15702103078365326 12.31779956817627,-0.0010657102102413774 12.711000442504883,0.0000054378424465539865 H15.031499862670898 C15.424500465393066,-0.0007993621984496713 15.801799774169922,0.1574060320854187 16.080699920654297,0.4399840235710144 C16.359699249267578,0.7225620746612549 16.5177001953125,1.1064900159835815 16.520000457763672,1.5077099800109863 V13.35319995880127 C16.518999099731445,13.667400360107422 16.39579963684082,13.968199729919434 16.177600860595703,14.18970012664795 C15.959400177001953,14.411100387573242 15.663999557495117,14.535099983215332 15.356399536132812,14.534299850463867 zM12.777899742126465,12.945099830627441 H14.962599754333496 V1.58610999584198 H12.778900146484375 L12.777899742126465,12.945099830627441 z" fill="#ee4380" id="svg_3" class="" fill-opacity="1"/><path d="M8.259920120239258,13.738200187683105 H4.518799781799316 V2.9832499027252197 C4.519440174102783,2.8886098861694336 4.538340091705322,2.79502010345459 4.5744099617004395,2.7078399658203125 C4.610479831695557,2.620650053024292 4.663020133972168,2.541569948196411 4.729030132293701,2.4751200675964355 C4.795030117034912,2.4086599349975586 4.8732099533081055,2.3561298847198486 4.959099769592285,2.3205299377441406 C5.044990062713623,2.2849199771881104 5.1369099617004395,2.266930103302002 5.229609966278076,2.2676000595092773 H7.549099922180176 C7.6417999267578125,2.266930103302002 7.733719825744629,2.2849199771881104 7.819610118865967,2.3205299377441406 C7.905509948730469,2.3561298847198486 7.983689785003662,2.4086599349975586 8.049690246582031,2.4751200675964355 C8.115699768066406,2.541569948196411 8.168230056762695,2.620650053024292 8.204310417175293,2.7078399658203125 C8.24038028717041,2.79502010345459 8.259269714355469,2.8886098861694336 8.259920120239258,2.9832499027252197 V13.738200187683105 z" fill="white" id="svg_4" class=""/><path d="M9.03773021697998,14.534199714660645 H3.7410900592803955 V2.9832301139831543 C3.7434298992156982,2.5818400382995605 3.9015300273895264,2.1977601051330566 4.180729866027832,1.9151500463485718 C4.459939956665039,1.6325500011444092 4.837480068206787,1.4744600057601929 5.230639934539795,1.4755300283432007 H7.549149990081787 C7.942150115966797,1.4747300148010254 8.319439888000488,1.632930040359497 8.598429679870605,1.9155100584030151 C8.877420425415039,2.198090076446533 9.035380363464355,2.58201003074646 9.03773021697998,2.9832301139831543 V14.534199714660645 zM5.296609878540039,12.945099830627441 H7.48121976852417 V3.0626399517059326 H5.2975897789001465 L5.296609878540039,12.945099830627441 z" fill="#919EAB" id="svg_5" class="" opacity="1"/><path d="M9.03773021697998,14.534199714660645 H3.7410900592803955 V2.9832301139831543 C3.7434298992156982,2.5818400382995605 3.9015300273895264,2.1977601051330566 4.180729866027832,1.9151500463485718 C4.459939956665039,1.6325500011444092 4.837480068206787,1.4744600057601929 5.230639934539795,1.4755300283432007 H7.549149990081787 C7.942150115966797,1.4747300148010254 8.319439888000488,1.632930040359497 8.598429679870605,1.9155100584030151 C8.877420425415039,2.198090076446533 9.035380363464355,2.58201003074646 9.03773021697998,2.9832301139831543 V14.534199714660645 zM5.296609878540039,12.945099830627441 H7.48121976852417 V3.0626399517059326 H5.2975897789001465 L5.296609878540039,12.945099830627441 z" fill="#ee4380" class="" opacity="1" id="svg_7" fill-opacity="1"/><path d="M5.297729969024658,14.534299850463867 H1.16280996799469 C0.8554800152778625,14.534500122070312 0.5605859756469727,14.410300254821777 0.34280699491500854,14.188899993896484 C0.12502700090408325,13.967499732971191 0.0021412200294435024,13.666999816894531 0.0010986300185322762,13.35319995880127 V8.376799583435059 C0.002401849953457713,8.023839950561523 0.14078600704669952,7.68582010269165 0.38589000701904297,7.4369001388549805 C0.630994975566864,7.187970161437988 0.9628040194511414,7.048480033874512 1.308519959449768,7.049009799957275 H5.297729969024658 V14.534299850463867 zM1.5566200017929077,12.945099830627441 H3.741230010986328 V8.638130187988281 H1.5566200017929077 V12.945099830627441 z" fill="#ee4380" id="svg_6" class="" fill-opacity="1"/></g></svg>