<svg width="15" height="5" viewBox="0 0 15 5" fill="none" xmlns="http://www.w3.org/2000/svg">
<path fill-rule="evenodd" clip-rule="evenodd" d="M1.875 4.32544C0.84375 4.32544 0 3.42544 0 2.32544C0 1.22544 0.84375 0.325439 1.875 0.325439C2.90625 0.325439 3.75 1.22544 3.75 2.32544C3.75 3.42544 2.90625 4.32544 1.875 4.32544ZM7.5 4.32544C6.46875 4.32544 5.625 3.42544 5.625 2.32544C5.625 1.22544 6.46875 0.325439 7.5 0.325439C8.53125 0.325439 9.375 1.22544 9.375 2.32544C9.375 3.42544 8.53125 4.32544 7.5 4.32544ZM13.125 4.32544C12.0938 4.32544 11.25 3.42544 11.25 2.32544C11.25 1.22544 12.0938 0.325439 13.125 0.325439C14.1562 0.325439 15 1.22544 15 2.32544C15 3.42544 14.1562 4.32544 13.125 4.32544Z" fill="#919EAB"/>
</svg>
