<svg version="1.1" xmlns="http://www.w3.org/2000/svg" xmlns:xlink="http://www.w3.org/1999/xlink" enable-background="new 0 0 1000 1000" xml:space="preserve" width="1000" height="1000"><rect id="backgroundrect" width="100%" height="100%" x="0" y="0" fill="none" stroke="none"/>
<metadata> Svg Vector Icons : http://www.onlinewebfonts.com/icon </metadata>

<g class="currentLayer" style=""><title>Layer 1</title><g id="svg_1" class="selected" fill-opacity="1" fill="#ee4380"><g id="svg_2" fill="#ee4380"><path d="M429.7,621.3c-13,0-26.1-5-36-14.9c-93.3-93.3-93.3-245,0-338.2L581.8,79.9C627,34.8,687.1,9.9,750.9,9.9c63.9,0,123.9,24.9,169.1,70.1c93.3,93.3,93.3,245,0,338.2l-86,86c-19.9,19.9-52.2,19.9-72.1,0c-19.9-19.9-19.9-52.2,0-72.1l86-86c53.5-53.5,53.5-140.6,0-194.1c-25.9-25.9-60.4-40.2-97-40.2c-36.7,0-71.1,14.3-97,40.2L465.7,340.2c-53.5,53.5-53.5,140.6,0,194.1c19.9,19.9,19.9,52.2,0,72.1C455.7,616.3,442.7,621.3,429.7,621.3L429.7,621.3z" id="svg_3" fill="#ee4380"/><path d="M249.1,990.1c-63.9,0-123.9-24.9-169.1-70.1c-93.3-93.3-93.3-245,0-338.2l86-86c19.9-19.9,52.2-19.9,72.1,0c19.9,19.9,19.9,52.2,0,72.1l-86,86c-53.5,53.5-53.5,140.6,0,194.1c25.9,25.9,60.4,40.2,97,40.2s71.1-14.3,97-40.2l188.2-188.2c53.5-53.5,53.5-140.6,0-194.1c-19.9-19.9-19.9-52.2,0-72.1c19.9-19.9,52.2-19.9,72.1,0c93.3,93.3,93.3,245,0,338.2L418.2,920.1C373,965.2,312.9,990.1,249.1,990.1L249.1,990.1z" id="svg_4" fill="#ee4380"/></g></g></g></svg>