<svg version="1.1" xmlns="http://www.w3.org/2000/svg" xmlns:xlink="http://www.w3.org/1999/xlink" style="enable-background:new 0 0 176.532 176.532;" xml:space="preserve" width="178.35293579101562" height="178.35293579101562"><rect id="backgroundrect" width="100%" height="100%" x="0" y="0" fill="none" stroke="none" style="" class=""/>
















<g class="currentLayer" style=""><title>Layer 1</title><g id="svg_1" class="" fill="#ee4380" fill-opacity="1">
	<path style="" d="M151.75152325630188,85.91200256347656 l-59.88999938964844,-49.40599822998047 c-2.7709999084472656,-2.2869999408721924 -6.7729997634887695,-2.2869999408721924 -9.545000076293945,0 l-59.88999938964844,49.40599822998047 c-1.7280000448226929,1.4249999523162842 -2.7279999256134033,3.5460000038146973 -2.7279999256134033,5.784999847412109 v74.54399871826172 c0,4.14300012588501 3.3570001125335693,7.5 7.5,7.5 h119.77899932861328 c4.14300012588501,0 7.5,-3.3570001125335693 7.5,-7.5 V91.6969985961914 C154.47953534126282,89.45800018310547 153.47953534126282,87.33699798583984 151.75152325630188,85.91200256347656 zM95.01952862739563,158.74099731445312 H79.15952801704407 v-41.52399826049805 h15.859000205993652 V158.74099731445312 zM139.47953534126282,158.74099731445312 h-29.459999084472656 v-49.02399826049805 c0,-4.14300012588501 -3.3570001125335693,-7.5 -7.5,-7.5 H71.65952801704407 c-4.14300012588501,0 -7.5,3.3570001125335693 -7.5,7.5 v49.02399826049805 h-29.459999084472656 V95.23300170898438 l52.38999938964844,-43.21900177001953 l52.38999938964844,43.21900177001953 V158.74099731445312 z" id="svg_2" fill="#ee4380" fill-opacity="1"/>
	<path style="" d="M172.54353070259094,70.86599731445312 c-16.70599937438965,-13.381999969482422 -32.45800018310547,-26.17799949645996 -49.56100082397461,-40.26100158691406 c-5.109000205993652,-4.591000080108643 -10.479000091552734,-8.937999725341797 -15.675000190734863,-13.144000053405762 c-5.086999893188477,-4.118000030517578 -10.347999572753906,-8.376999855041504 -15.201000213623047,-12.744999885559082 c-2.8540000915527344,-2.568000078201294 -7.182000160217285,-2.568000078201294 -10.03499984741211,0 c-4.854000091552734,4.368000030517578 -10.11400032043457,8.626999855041504 -15.201000213623047,12.744999885559082 c-5.195000171661377,4.204999923706055 -10.5649995803833,8.553000450134277 -15.675000190734863,13.144000053405762 C34.09352993965149,44.68899917602539 18.34152913093567,57.48400115966797 1.6355295181274414,70.86599731445312 c-3.2330000400543213,2.5889999866485596 -3.755000114440918,7.309999942779541 -1.1649999618530273,10.541999816894531 c2.5889999866485596,3.2320001125335693 7.310999870300293,3.755000114440918 10.541999816894531,1.1649999618530273 C27.814528703689575,69.11599731445312 43.652528047561646,56.249000549316406 60.85752987861633,42.08000183105469 c0.08500000089406967,-0.0689999982714653 0.1679999977350235,-0.14100000262260437 0.25,-0.2150000035762787 c4.854000091552734,-4.368000030517578 10.11400032043457,-8.626999855041504 15.201000213623047,-12.744999885559082 c3.559000015258789,-2.880000114440918 7.198999881744385,-5.827000141143799 10.781000137329102,-8.873000144958496 c3.5820000171661377,3.0460000038146973 7.2230000495910645,5.993000030517578 10.781000137329102,8.873000144958496 c5.086999893188477,4.118000030517578 10.347999572753906,8.376999855041504 15.201000213623047,12.744999885559082 c0.0820000022649765,0.07400000095367432 0.16500000655651093,0.1459999978542328 0.25,0.2150000035762787 c17.20400047302246,14.168999671936035 33.042999267578125,27.035999298095703 49.845001220703125,40.49300003051758 c1.3839999437332153,1.1080000400543213 3.0390000343322754,1.6460000276565552 4.684000015258789,1.6460000276565552 c2.197999954223633,0 4.376999855041504,-0.9620000123977661 5.857999801635742,-2.812000036239624 C176.29853558540344,78.1760025024414 175.77653241157532,73.45500183105469 172.54353070259094,70.86599731445312 z" id="svg_3" fill="#ee4380" fill-opacity="1"/>
</g><g id="svg_4">
</g><g id="svg_5">
</g><g id="svg_6">
</g><g id="svg_7">
</g><g id="svg_8">
</g><g id="svg_9">
</g><g id="svg_10">
</g><g id="svg_11">
</g><g id="svg_12">
</g><g id="svg_13">
</g><g id="svg_14">
</g><g id="svg_15">
</g><g id="svg_16">
</g><g id="svg_17">
</g><g id="svg_18">
</g></g></svg>