<svg width="40" height="30" viewBox="0 0 40 30" fill="none" xmlns="http://www.w3.org/2000/svg">
<rect width="40" height="30" rx="5" fill="#EE4380"/>
<path d="M5.81819 19.408C5.81819 19.3653 5.82885 19.312 5.85019 19.248L6.93819 16.368H6.28219C5.99419 16.368 5.85019 16.1653 5.85019 15.76C5.85019 15.6 5.88752 15.4667 5.96219 15.36C6.03685 15.2427 6.14352 15.184 6.28219 15.184H7.38619L9.61019 9.36C9.69552 9.18933 9.81285 9.056 9.96219 8.96C10.1115 8.85333 10.2449 8.8 10.3622 8.8C10.4795 8.8 10.6129 8.85333 10.7622 8.96C10.9115 9.06667 11.0235 9.2 11.0982 9.36L13.3222 15.184H14.3622C14.5009 15.184 14.6075 15.2427 14.6822 15.36C14.7675 15.4773 14.8102 15.616 14.8102 15.776C14.8102 16.1707 14.6609 16.368 14.3622 16.368H13.7862L14.8902 19.248C14.9115 19.312 14.9222 19.3653 14.9222 19.408C14.9222 19.568 14.8422 19.7067 14.6822 19.824C14.5222 19.9413 14.3622 20 14.2022 20C14.0315 20 13.9035 19.92 13.8182 19.76L12.5222 16.368H8.21819L6.92219 19.76C6.83685 19.92 6.70885 20 6.53819 20C6.37819 20 6.21819 19.9413 6.05819 19.824C5.89819 19.7067 5.81819 19.568 5.81819 19.408ZM8.66619 15.184H12.0582L10.3622 10.72L8.66619 15.184ZM16.1649 16.832C16.1649 16.128 16.3463 15.552 16.7089 15.104C17.0716 14.656 17.5729 14.2453 18.2129 13.872L18.1649 13.808C17.4609 12.9973 17.1089 12.112 17.1089 11.152C17.1089 10.448 17.3756 9.88267 17.9089 9.456C18.4423 9.01867 19.0609 8.8 19.7649 8.8C20.4796 8.8 21.0983 9.024 21.6209 9.472C22.1543 9.92 22.4209 10.5333 22.4209 11.312C22.4209 12.0267 22.2183 12.608 21.8129 13.056C21.4183 13.504 20.8636 13.92 20.1489 14.304L22.1649 16.656L22.7569 15.68C22.7996 15.6373 22.8636 15.616 22.9489 15.616C23.1303 15.616 23.2849 15.7067 23.4129 15.888C23.5516 16.0587 23.6209 16.2133 23.6209 16.352C23.6209 16.4373 23.5996 16.5067 23.5569 16.56L22.9169 17.52L24.1649 18.96C24.2289 19.0347 24.2609 19.12 24.2609 19.216C24.2609 19.344 24.1809 19.4827 24.0209 19.632C23.8609 19.7813 23.7009 19.856 23.5409 19.856C23.4236 19.856 23.3329 19.8187 23.2689 19.744L22.1649 18.464C21.2903 19.4133 20.3196 19.888 19.2529 19.888C18.3676 19.888 17.6316 19.648 17.0449 19.168C16.4583 18.688 16.1649 17.9093 16.1649 16.832ZM17.3489 16.912C17.3489 17.5307 17.5409 17.984 17.9249 18.272C18.3089 18.56 18.7836 18.704 19.3489 18.704C20.1383 18.704 20.8423 18.3467 21.4609 17.632L19.0769 14.864C18.5223 15.1627 18.0956 15.4667 17.7969 15.776C17.4983 16.0853 17.3489 16.464 17.3489 16.912ZM18.2609 11.312C18.2609 11.8347 18.5009 12.3787 18.9809 12.944L19.2849 13.312C19.6049 13.152 19.8556 13.0187 20.0369 12.912C20.2289 12.7947 20.4263 12.6507 20.6289 12.48C20.8423 12.3093 20.9969 12.128 21.0929 11.936C21.1889 11.7333 21.2369 11.5093 21.2369 11.264C21.2369 10.8587 21.0929 10.544 20.8049 10.32C20.5276 10.0853 20.1916 9.968 19.7969 9.968C19.3916 9.968 19.0343 10.0907 18.7249 10.336C18.4156 10.5707 18.2609 10.896 18.2609 11.312ZM25.2434 14.32C25.2434 12.688 25.8301 11.3333 27.0034 10.256C28.1874 9.168 29.5794 8.624 31.1794 8.624C32.1394 8.624 33.0301 8.95467 33.8514 9.616C33.9368 9.69067 33.9794 9.78667 33.9794 9.904C33.9794 10.0747 33.9101 10.2347 33.7714 10.384C33.6328 10.5227 33.4888 10.592 33.3394 10.592C33.2328 10.592 33.1421 10.5547 33.0674 10.48C32.5554 10.032 31.9154 9.808 31.1474 9.808C29.7501 9.808 28.6141 10.2613 27.7394 11.168C26.8754 12.064 26.4434 13.1093 26.4434 14.304C26.4434 15.5307 26.8701 16.6133 27.7234 17.552C28.5768 18.4907 29.7234 18.96 31.1634 18.96C32.1021 18.96 32.8648 18.624 33.4514 17.952C33.5688 17.8347 33.6701 17.776 33.7554 17.776C33.9154 17.776 34.0701 17.856 34.2194 18.016C34.3688 18.176 34.4434 18.3307 34.4434 18.48C34.4434 18.576 34.4061 18.6613 34.3314 18.736C33.5101 19.6747 32.4808 20.144 31.2434 20.144C30.0168 20.144 28.9394 19.8667 28.0114 19.312C27.0834 18.7467 26.3901 18.032 25.9314 17.168C25.4728 16.2933 25.2434 15.344 25.2434 14.32Z" fill="white"/>
</svg>
