<svg width="129" height="214" viewBox="0 0 129 214" fill="none" xmlns="http://www.w3.org/2000/svg">
<path d="M75.0352 214C98.9719 214 118.376 211.349 118.376 208.079C118.376 204.809 98.9719 202.158 75.0352 202.158C51.0985 202.158 31.6939 204.809 31.6939 208.079C31.6939 211.349 51.0985 214 75.0352 214Z" fill="#EF4380"/>
<path d="M24.6315 38.7746C23.7229 38.9477 22.7894 38.9477 21.8808 38.7746C21.0185 38.5826 20.0371 37.8739 20.1412 36.8403C20.1537 36.5967 20.2268 36.3599 20.354 36.1512C20.4811 35.9425 20.6583 35.7683 20.8698 35.6442C21.0896 35.5373 21.3312 35.4817 21.576 35.4817C21.8208 35.4817 22.0624 35.5373 22.2823 35.6442C22.7114 35.8457 23.0838 36.1492 23.3665 36.5278C23.6492 36.9065 23.8335 37.3485 23.9029 37.8148C24.1333 38.716 24.1333 39.6601 23.9029 40.5612C23.586 41.4429 22.9782 42.1923 22.1782 42.6875C20.5984 43.656 18.7516 44.1055 16.8999 43.9721C17.8136 44.0085 18.7273 43.8988 19.606 43.6473C20.4877 43.4335 21.3271 43.0741 22.089 42.5842C22.853 42.0977 23.4293 41.3693 23.7245 40.5169C23.9448 39.6495 23.9448 38.7413 23.7245 37.8739C23.6581 37.4411 23.4885 37.0304 23.2299 36.676C22.9713 36.3215 22.6311 36.0336 22.2377 35.8362C22.0419 35.7462 21.8289 35.6996 21.6132 35.6996C21.3975 35.6996 21.1844 35.7462 20.9887 35.8362C20.8035 35.9452 20.6483 36.0979 20.5368 36.2808C20.4252 36.4637 20.3609 36.6711 20.3494 36.8846C20.2304 37.8 21.1077 38.4793 21.9552 38.686C22.8357 38.8664 23.7408 38.8963 24.6315 38.7746Z" fill="#EF4380"/>
<path d="M19.9331 62.1931C19.9022 60.2796 20.3465 58.388 21.2266 56.6855C22.1115 54.9779 23.3415 53.47 24.8396 52.2557C23.4615 53.5277 22.3147 55.0262 21.4496 56.6855C20.5415 58.3879 20.0236 60.2686 19.9331 62.1931Z" fill="#EF4380"/>
<path d="M18.2232 70.5948C16.2414 69.8748 14.4405 68.7362 12.9449 67.2578C12.7655 67.0583 12.6293 66.8242 12.5449 66.5702C12.4605 66.3161 12.4296 66.0476 12.4543 65.7812C12.4857 65.5061 12.5943 65.2453 12.7679 65.0286C12.9414 64.8119 13.1728 64.648 13.4356 64.5556C13.7006 64.4769 13.9807 64.4627 14.2524 64.5141C14.5242 64.5655 14.7794 64.681 14.9967 64.8509C15.2305 65.0089 15.4034 65.241 15.4872 65.5092C15.5709 65.7774 15.5605 66.0659 15.4577 66.3275C14.9974 67.2897 14.1832 68.0401 13.1828 68.4243C12.2095 68.8131 11.169 69.0087 10.1199 69.0001C9.07746 69.0256 8.03653 68.9063 7.0273 68.6458C6.00092 68.469 5.0667 67.9477 4.38074 67.1692C5.06573 67.9565 6.00794 68.4793 7.04217 68.6458C8.04478 68.8835 9.07477 68.9878 10.1051 68.9558C11.1254 68.952 12.1354 68.7514 13.0787 68.3652C14.0284 67.9925 14.7993 67.2744 15.2346 66.3571C15.651 65.3973 14.3425 64.5261 13.4653 64.8805C13.2345 64.9577 13.0308 65.0988 12.878 65.2872C12.7253 65.4755 12.6298 65.7033 12.6029 65.9436C12.5792 66.1883 12.6065 66.4353 12.6833 66.6691C12.76 66.9028 12.8845 67.1183 13.049 67.3021C14.5439 68.7205 16.3009 69.8386 18.2232 70.5948Z" fill="#EF4380"/>
<path d="M12.261 97.5276C11.8056 99.1901 10.7462 100.626 9.2873 101.559C8.89877 101.753 8.47528 101.868 8.04138 101.899C7.60749 101.929 7.17184 101.874 6.75968 101.736C5.94064 101.43 5.21384 100.922 4.64838 100.259C4.31238 99.9731 4.05843 99.604 3.91222 99.1891C3.76601 98.7743 3.73273 98.3284 3.81575 97.8967C3.99474 97.4894 4.3011 97.1503 4.68944 96.9295C5.07777 96.7088 5.5274 96.6182 5.97166 96.6711C6.42263 96.7364 6.85602 96.8901 7.24658 97.1233C7.63713 97.3565 7.97705 97.6646 8.24652 98.0296C8.83423 98.654 9.33436 99.3543 9.73335 100.112C10.1539 100.873 10.3254 101.745 10.224 102.607C10.1611 103.036 10.0115 103.449 9.78408 103.819C9.55668 104.19 9.25621 104.511 8.90073 104.763C8.55875 105.029 8.14244 105.176 7.8302 105.427C7.49744 105.675 7.20638 105.975 6.96784 106.313C6.47593 106.988 6.24384 107.816 6.31363 108.646C6.41771 109.458 6.77455 110.256 6.95297 111.083C7.15881 111.903 7.30294 112.737 7.38415 113.578C7.56152 115.262 7.39464 116.965 6.8935 118.584C7.36387 116.964 7.50041 115.266 7.29494 113.593C7.19714 112.757 7.04316 111.928 6.83402 111.112C6.6556 110.285 6.29876 109.532 6.17982 108.661C6.10225 107.795 6.33963 106.931 6.84889 106.225C7.0959 105.875 7.39698 105.566 7.74099 105.309C8.08297 105.043 8.48441 104.881 8.81152 104.63C9.13641 104.379 9.40668 104.065 9.606 103.707C9.80532 103.349 9.92957 102.955 9.97125 102.548C10.0649 101.726 9.89865 100.895 9.49546 100.171C9.09212 99.434 8.59214 98.7538 8.00862 98.1477C7.50471 97.4897 6.76422 97.0506 5.94192 96.9222C5.54577 96.8844 5.14767 96.971 4.80361 97.1696C4.45956 97.3683 4.18687 97.669 4.02391 98.0296C3.95003 98.4292 3.9825 98.841 4.1181 99.2243C4.25371 99.6076 4.48775 99.9491 4.79706 100.215C5.34574 100.846 6.04656 101.329 6.83402 101.618C7.22791 101.753 7.64473 101.809 8.06061 101.784C8.47649 101.758 8.88324 101.652 9.25757 101.47C10.6955 100.549 11.7593 99.1523 12.261 97.5276Z" fill="#EF4380"/>
<path d="M31.6939 138.488C29.9496 139.014 28.1036 139.115 26.3116 138.783C25.4084 138.61 24.557 138.233 23.8226 137.683C23.0882 137.133 22.4901 136.423 22.0741 135.609C21.327 133.932 21.2161 132.044 21.7619 130.293C22.2028 128.54 23.0306 126.905 24.1854 125.509C23.0925 126.941 22.3034 128.579 21.8659 130.322C21.3534 132.038 21.4855 133.879 22.2376 135.505C22.6385 136.299 23.2143 136.992 23.9222 137.534C24.6301 138.076 25.4518 138.452 26.3264 138.636C28.1051 138.975 29.937 138.925 31.6939 138.488Z" fill="#EF4380"/>
<path d="M35.2475 138.798C36.5228 140.098 37.3995 141.732 37.7751 143.508C37.8078 143.974 37.6821 144.436 37.4182 144.822C37.1259 145.187 36.7253 145.45 36.2734 145.575C35.3902 145.799 34.4763 145.879 33.5673 145.812C32.6604 145.812 31.7683 145.694 30.8762 145.634C30.4305 145.608 29.9837 145.608 29.538 145.634C29.1068 145.634 28.631 145.708 28.408 146.077C28.1902 146.447 28.0868 146.873 28.1106 147.301C28.1344 147.729 28.2843 148.14 28.5418 148.484C28.9925 149.247 29.4891 149.981 30.0287 150.684C31.144 152.111 31.9765 153.734 32.4819 155.469C32.7267 156.351 32.6531 157.292 32.2738 158.126C31.8257 158.94 31.1489 159.607 30.326 160.046C28.7122 160.888 26.9406 161.391 25.1221 161.522C23.3208 161.711 21.4999 161.561 19.7546 161.079C21.5007 161.53 23.3165 161.65 25.1072 161.434C26.9047 161.291 28.6546 160.789 30.2517 159.957C31.0428 159.543 31.698 158.913 32.14 158.141C32.5103 157.335 32.584 156.426 32.3481 155.572C31.8377 153.862 31.0052 152.263 29.8949 150.862C29.355 150.154 28.8585 149.414 28.408 148.647C28.1303 148.268 27.9721 147.816 27.9536 147.348C27.9351 146.88 28.057 146.417 28.3039 146.018C28.4591 145.836 28.6565 145.694 28.8792 145.604C29.1019 145.514 29.3433 145.479 29.5826 145.502C30.0382 145.475 30.4949 145.475 30.9505 145.502C31.8575 145.502 32.7496 145.664 33.6417 145.694C34.5293 145.766 35.423 145.697 36.2882 145.487C36.7096 145.373 37.0841 145.13 37.3588 144.793C37.6075 144.434 37.7279 144.002 37.7007 143.567C37.5789 142.658 37.2483 141.789 36.7343 141.028C36.2952 140.249 35.7982 139.503 35.2475 138.798Z" fill="#EF4380"/>
<path d="M48.8371 178.784C48.3962 178.763 47.959 178.873 47.5802 179.098C47.2014 179.323 46.8979 179.654 46.7075 180.049C46.5171 180.445 46.4483 180.887 46.5097 181.321C46.5712 181.755 46.7601 182.162 47.0529 182.49C48.0838 183.88 49.2766 185.144 50.6065 186.255C51.2652 186.848 51.805 187.56 52.1974 188.352C52.3809 188.771 52.4124 189.241 52.2866 189.681C52.1363 190.114 51.836 190.48 51.4391 190.714C49.8382 191.471 48.0353 191.699 46.2946 191.364C47.159 191.464 48.0322 191.464 48.8966 191.364C49.7598 191.293 50.5971 191.036 51.3499 190.611C51.7166 190.4 51.9885 190.058 52.1101 189.654C52.2316 189.251 52.1937 188.817 52.0041 188.44C51.61 187.679 51.0754 186.998 50.428 186.432C49.081 185.311 47.8865 184.02 46.8745 182.593C46.6317 182.218 46.4776 181.794 46.4235 181.352C46.3694 180.909 46.4169 180.46 46.5623 180.039C46.8086 179.66 47.145 179.348 47.5417 179.129C47.9385 178.91 48.3833 178.791 48.8371 178.784Z" fill="#EF4380"/>
<path d="M109.693 4.31124C108.48 4.09566 107.253 3.97225 106.021 3.9421C104.793 3.87403 103.562 4.00875 102.378 4.34078C101.816 4.51557 101.305 4.82486 100.891 5.24149C100.692 5.46199 100.536 5.71734 100.43 5.99454C100.365 6.27223 100.396 6.56387 100.52 6.82143C100.729 7.37882 101.136 7.841 101.664 8.12081C101.925 8.22714 102.208 8.26795 102.488 8.23961C102.768 8.21128 103.037 8.11468 103.27 7.95839C103.443 7.81707 103.553 7.61349 103.575 7.39213C103.597 7.17078 103.531 6.94967 103.389 6.77713C103.069 6.42417 102.63 6.19858 102.155 6.1422C101.698 6.00106 101.213 5.97166 100.742 6.0565C100.271 6.14133 99.8272 6.3379 99.449 6.62947C99.2569 6.75987 99.1014 6.93679 98.9974 7.14349C98.8933 7.3502 98.844 7.57985 98.8543 7.81073C98.9677 8.27592 99.2098 8.70039 99.5531 9.03629C99.9029 9.38878 100.127 9.845 100.192 10.3357C100.248 10.8263 100.248 11.3216 100.192 11.8123C100.311 11.3441 100.311 10.8544 100.195 10.3859C100.078 9.9174 99.8475 9.48444 99.5234 9.12489C99.1561 8.78866 98.8974 8.35192 98.7799 7.8698C98.7491 7.60255 98.7923 7.33202 98.905 7.0874C99.0177 6.84279 99.1955 6.63339 99.4193 6.48181C99.8127 6.17457 100.274 5.96476 100.765 5.86976C101.257 5.77476 101.764 5.79728 102.244 5.93548C102.747 6.028 103.2 6.2949 103.523 6.68853C103.69 6.89749 103.775 7.16012 103.761 7.42682C103.727 7.6923 103.601 7.93768 103.404 8.12081C103.132 8.30069 102.818 8.40749 102.492 8.43078C102.167 8.45407 101.84 8.39306 101.545 8.25371C100.962 7.93243 100.522 7.40547 100.311 6.77713C100.179 6.47443 100.153 6.13654 100.237 5.81735C100.344 5.5699 100.49 5.3407 100.668 5.13813C101.121 4.69738 101.678 4.3774 102.289 4.20788C103.489 3.88307 104.735 3.75833 105.976 3.83874C107.226 3.89706 108.469 4.05507 109.693 4.31124Z" fill="#EF4380"/>
<path d="M100.207 11.7827C101.081 10.4335 102.331 9.36628 103.805 8.71146C105.267 8.03924 106.804 7.54351 108.385 7.23488C111.571 6.60163 114.88 7.20397 117.633 8.91818C114.849 7.32702 111.576 6.80184 108.43 7.4416C106.864 7.72176 105.337 8.18263 103.88 8.81482C102.409 9.45756 101.14 10.483 100.207 11.7827Z" fill="#EF4380"/>
<path d="M124.383 75.2756C123.714 74.9121 123.146 74.3905 122.729 73.7569C122.311 73.1234 122.057 72.3974 121.989 71.6432C121.989 70.0189 123.476 68.9853 124.145 67.745C124.492 67.0952 124.692 66.3787 124.733 65.6446C124.774 64.9106 124.655 64.1764 124.383 63.4925C123.919 62.0829 123.187 60.7746 122.227 59.6386C123.236 60.7302 123.997 62.0244 124.458 63.4334C124.751 64.1414 124.886 64.9044 124.853 65.6694C124.819 66.4344 124.619 67.183 124.264 67.8631C123.476 69.1478 122.138 70.1223 122.079 71.6579C122.152 72.3976 122.399 73.1099 122.799 73.738C123.199 74.3661 123.742 74.8926 124.383 75.2756Z" fill="#EF4380"/>
<path d="M125.275 47.634C126.628 41.9197 126.435 34.9207 123.595 29.9151C122.716 28.5795 121.907 27.1995 121.172 25.7807C120.116 23.3739 120.101 20.6718 119.105 18.2502C117.023 13.0969 109.589 10.0847 103.345 11.2512C101.278 11.6351 100.207 11.7828 100.207 11.7828C99.9584 11.1203 99.7645 10.4389 99.6274 9.74508C99.3847 9.12671 99.0913 8.52915 98.7502 7.95842C97.3608 5.60344 95.288 3.71985 92.8028 2.55415C91.6889 2.05665 90.5412 1.63726 89.3683 1.29906C87.7254 0.737996 86.0328 0.332591 84.313 0.0882659C81.7896 -0.179763 79.2385 0.164802 76.8788 1.09234C75.6677 1.56122 74.5192 2.17614 73.4591 2.92329C72.5224 3.58775 71.8385 4.78378 70.6341 4.39987C68.474 3.7728 66.212 3.56721 63.9731 3.79447C60.2891 3.78938 56.6235 4.31155 53.0895 5.34488C49.6103 6.55567 46.3987 9.02156 45.4917 12.211C45.016 13.8795 45.0457 15.8876 43.4845 16.936C42.4034 17.4731 41.2141 17.7608 40.0053 17.7777C33.1213 18.6636 27.8727 24.4075 25.9845 30.3581C24.0962 36.3087 24.7653 42.5103 25.0626 48.5791C25.2466 50.199 25.0845 51.8392 24.5868 53.3927C24.0817 54.4859 23.4901 55.5375 22.8175 56.5378C21.6759 58.438 20.966 60.5629 20.7375 62.764C20.5089 64.965 20.7672 67.1891 21.4942 69.2807C17.7727 70.7522 14.1519 72.4638 10.6552 74.4044C4.79706 77.6529 -1.31383 83.0571 0.247345 88.7863C2.29918 95.9772 14.1195 96.4054 19.2937 102.149C19.7055 102.514 20.0191 102.975 20.2061 103.491C20.393 104.007 20.4474 104.561 20.3642 105.102C20.0966 106.136 19.0558 106.874 18.2232 107.657C17.2671 108.564 16.5342 109.677 16.0812 110.91C15.6283 112.144 15.4675 113.464 15.6113 114.769C15.755 116.075 16.1996 117.329 16.9104 118.436C17.6212 119.543 18.5791 120.473 19.71 121.153C21.1076 121.95 22.8324 122.497 23.665 123.766C25.3897 126.395 22.1782 129.673 22.4309 132.788C22.6242 135.402 25.4046 137.218 28.1701 138.015C30.9356 138.813 34.1175 138.65 36.9722 139.093C42.0572 139.891 46.8299 142.578 48.8669 146.698C49.9273 148.824 50.2106 151.251 49.6681 153.562C49.1257 155.873 47.7912 157.925 45.8932 159.367C44.4392 160.179 43.1243 161.216 41.9977 162.438C40.5108 164.579 41.6111 167.325 43.3061 169.201C45.0011 171.076 47.2611 172.582 48.4654 174.753C49.6698 176.923 49.2534 180.157 46.6812 181.22C47.1037 181.314 47.5412 181.322 47.9669 181.244C48.3927 181.165 48.7979 181.001 49.1581 180.763C49.5182 180.524 49.8257 180.215 50.0619 179.854C50.2981 179.494 50.4581 179.089 50.5321 178.665C50.5313 179.813 50.9788 180.916 51.7802 181.742C52.5817 182.568 53.6746 183.053 54.8291 183.095C53.7437 179.463 52.6434 175.712 53.3422 171.918C53.5998 170.427 54.1596 169.004 54.9877 167.735C55.8158 166.466 56.8949 165.377 58.1596 164.535" fill="#EF6898"/>
<path d="M86.8555 88.9044C86.9201 89.4258 87.0922 89.9285 87.361 90.3809C79.9269 93.2012 77.3695 100.717 76.5369 105.531C73.7374 106.751 71.1247 108.357 68.7756 110.3C65.644 112.822 62.8375 115.719 60.4196 118.923C60.1513 118.482 59.848 118.062 59.5126 117.668C58.854 117.023 58.2796 116.299 57.8027 115.512C56.7322 113.342 58.0704 110.758 59.7208 109.001C61.3711 107.243 63.4378 105.678 64.1813 103.39C64.9247 101.101 64.2556 98.6793 64.1813 96.2872C64.0526 92.9191 65.1035 89.6109 67.1549 86.9258" fill="#EF4380"/>
<path d="M86.8555 88.9044C86.898 89.4284 87.0663 89.9347 87.3462 90.381C87.3462 90.381 87.8814 90.1595 88.833 89.8937C90.0197 89.5727 91.2268 89.331 92.446 89.1702C94.7291 89.0462 97.0172 89.0462 99.3003 89.1702C99.0412 88.727 98.8842 88.2323 98.8405 87.7217C98.7968 87.2111 98.8675 86.6972 99.0476 86.217" fill="white"/>
<path d="M87.0785 91.2226L86.7514 90.7206C86.4158 90.1942 86.2072 89.5979 86.1418 88.9782L87.6286 88.801C87.6517 89.0069 87.6966 89.2099 87.7625 89.4064L88.6248 89.1702C89.8458 88.8485 91.0878 88.6117 92.3419 88.4614C94.2928 88.3419 96.2492 88.3419 98.2 88.4614C97.9292 87.6073 97.9984 86.6825 98.3933 85.8774L99.6869 86.5714C99.5563 86.9496 99.5099 87.3514 99.551 87.7491C99.592 88.1468 99.7196 88.5309 99.9248 88.8749L100.609 90.0414H99.2557C97.0221 89.9227 94.7837 89.9227 92.5501 90.0414C91.3674 90.1883 90.1953 90.4102 89.0411 90.7058C88.149 90.9716 87.6435 91.1636 87.5543 91.1783L87.0785 91.2226Z" fill="#EF6898"/>
<path d="M59.7208 69.2216C59.9141 73.9467 60.5385 81.9497 64.4043 85.1982C65.6362 86.1689 67.0234 86.9276 68.508 87.4426C75.9421 90.2776 84.6996 89.5246 92.3865 88.0185C100.295 86.4839 107.661 82.9204 113.752 77.6824C116.968 74.898 119.736 71.6414 121.96 68.0256C122.858 66.559 123.658 65.0348 124.354 63.463C125.851 60.3256 126.758 56.9427 127.03 53.4813C127.163 51.7829 126.888 50.0773 126.227 48.5053C125.588 47.132 124.458 46.3495 124.13 44.8729C123.402 41.0338 117.023 -4.07565 68.9094 15.7105" fill="white"/>
<path d="M59.7208 69.2216C59.7819 73.0124 60.3826 76.7756 61.505 80.3993C62.0652 82.2045 63.0902 83.8332 64.4786 85.1243C65.9871 86.2871 67.7019 87.1586 69.5339 87.6936C76.8194 90.0118 84.655 89.3474 92.0743 87.9003C99.5573 86.4596 106.565 83.203 112.474 78.4207C118.392 73.6212 122.833 67.2666 125.29 60.0816C125.911 58.3158 126.339 56.4893 126.569 54.633C126.841 52.8029 126.694 50.9353 126.138 49.1697C125.786 48.3149 125.282 47.5297 124.651 46.8515C124.338 46.4531 124.087 46.01 123.907 45.5373C123.772 45.0529 123.673 44.5594 123.61 44.0607C123.283 42.2002 122.882 40.3545 122.391 38.5383C120.621 31.1714 116.911 24.4041 111.641 18.9294C108.928 16.2931 105.7 14.2377 102.155 12.8902C98.6176 11.575 94.8702 10.9047 91.093 10.9116C83.4544 11.0615 75.9188 12.6917 68.9094 15.7104C75.8943 12.569 83.4301 10.8134 91.093 10.5424C94.9435 10.5122 98.7674 11.1777 102.378 12.5063C105.986 13.8669 109.275 15.9474 112.043 18.6193C117.385 24.143 121.156 30.9758 122.971 38.4202C123.476 40.2512 123.893 42.1116 124.235 43.9869C124.298 44.4357 124.393 44.8797 124.517 45.3158C124.677 45.7249 124.898 46.1081 125.171 46.4528C125.808 47.1879 126.311 48.0273 126.658 48.9334C127.264 50.7953 127.436 52.7692 127.164 54.7068C126.973 56.6171 126.564 58.4997 125.944 60.3178C123.41 67.5825 118.878 73.997 112.86 78.8341C106.852 83.6308 99.7415 86.8773 92.1635 88.2842C88.4076 89.0401 84.591 89.4601 80.7595 89.5393C76.922 89.6469 73.0944 89.0975 69.4447 87.9151C67.599 87.3556 65.8745 86.4593 64.3597 85.272C62.9603 83.9427 61.9351 82.2731 61.386 80.4288C60.3019 76.7897 59.7413 73.0166 59.7208 69.2216Z" fill="#EF6898"/>
<path d="M57.8325 68.7638C55.2454 63.8468 53.4909 60.8937 54.5466 55.4746C55.6022 50.0556 59.0071 47.4125 61.1184 47.4125C73.3402 47.4125 75.4515 66.608 75.4515 66.608C75.4515 66.608 63.7204 71.4512 57.8325 68.7638Z" fill="white"/>
<path d="M62.3673 69.768C60.7832 69.8183 59.2065 69.5313 57.7433 68.9263L57.3567 68.2028C54.9629 63.6845 53.3868 60.7018 54.383 55.4452C55.4684 49.8489 59.0665 47.2354 61.1481 47.2354C73.3848 47.2354 75.6448 66.4309 75.6596 66.6376V66.7705H75.5258C71.3377 68.4884 66.8907 69.5014 62.3673 69.768ZM57.9068 68.6162C63.4081 71.0526 73.9052 67.0215 75.2582 66.5047C75.0352 64.7919 72.5075 47.5602 61.1333 47.5602C59.0963 47.5602 55.736 50.3067 54.7399 55.4747C53.7437 60.6427 55.3049 63.5516 57.7135 67.9961L57.9068 68.6162Z" fill="#EF6898"/>
<path d="M34.0431 70.1814C32.7339 72.7882 32.2914 75.7403 32.7793 78.6127C33.352 81.4817 34.7519 84.1236 36.8086 86.2171C38.7267 88.3876 40.9272 90.3219 42.8452 92.5073C43.8187 93.5942 44.6712 94.7823 45.3877 96.0511C45.8107 96.6489 46.0942 97.3328 46.2177 98.053C46.3411 98.7733 46.3014 99.5119 46.1014 100.215C46.2827 99.5145 46.3047 98.7827 46.1659 98.0727C46.027 97.3627 45.7307 96.6923 45.2985 96.1101C44.5603 94.8276 43.6828 93.6294 42.6816 92.5368C40.7488 90.3662 38.5334 88.4615 36.5856 86.2909C34.5296 84.1793 33.1306 81.5236 32.5563 78.6422C32.0953 75.7363 32.6182 72.7605 34.0431 70.1814Z" fill="#EF4380"/>
<path d="M109.901 162.556L97.8878 197.256L83.0195 196.296L82.1422 166.395C82.1282 165.96 82.0215 165.532 81.829 165.14C81.6366 164.749 81.3628 164.402 81.0257 164.123C80.6886 163.844 80.2958 163.639 79.8732 163.522C79.4506 163.404 79.0077 163.377 78.5738 163.442C71.9425 164.431 55.9442 166.986 45.7891 160.489C44.3023 159.544 40.377 156.827 40.0796 152.604C39.2024 140.186 47.38 126.026 47.38 126.026L58.3826 122.186" fill="white"/>
<path d="M98.1406 197.639L82.5883 196.65L81.6962 166.425C81.6755 166.047 81.5756 165.677 81.4029 165.34C81.2301 165.003 80.9883 164.705 80.693 164.466C80.3976 164.227 80.0552 164.052 79.6878 163.952C79.3203 163.852 78.9358 163.829 78.559 163.885H78.1129C71.3627 164.889 55.5725 167.237 45.5215 160.828C41.8787 158.569 39.8566 155.764 39.7079 152.663C38.7564 140.348 46.9042 126.085 46.9934 125.937V125.819L58.115 121.935L58.3529 122.629L47.4841 126.424C46.7109 127.812 39.4701 141.116 40.2878 152.692C40.4811 155.483 42.3991 158.111 45.8337 160.297C55.6617 166.558 71.2586 164.239 77.9196 163.25H78.3657C78.844 163.177 79.3324 163.205 79.7994 163.331C80.2664 163.457 80.7016 163.678 81.077 163.982C81.4524 164.285 81.7597 164.663 81.979 165.091C82.1983 165.52 82.3248 165.989 82.3504 166.469L83.2127 196L97.531 196.916L109.426 162.482L110.124 162.718L98.1406 197.639Z" fill="#EF6898"/>
<path d="M28.631 34.212C27.2265 32.7051 26.2872 30.8293 25.925 28.8077C25.4855 26.8017 25.7863 24.7056 26.7725 22.9014C27.9624 21.2015 29.6807 19.9359 31.6642 19.2985C33.5979 18.6012 35.6438 18.2609 37.7007 18.2945C35.6703 18.3472 33.6618 18.7261 31.7534 19.4167C29.8213 20.0677 28.1525 21.321 26.9955 22.99C25.9967 24.7627 25.6798 26.8352 26.1034 28.8225C26.4483 30.8102 27.3209 32.6707 28.631 34.212Z" fill="#EF4380"/>
<path d="M43.3953 16.9951C40.2051 15.6424 36.9016 14.5703 33.5227 13.7909C31.8288 13.4274 30.0946 13.2835 28.3634 13.3627C27.5007 13.3705 26.6457 13.5253 25.8358 13.8204C25.6377 13.8904 25.4625 14.0126 25.3289 14.1739C25.1954 14.3351 25.1085 14.5294 25.0775 14.7359C25.0629 14.8414 25.0706 14.9488 25.1001 15.0512C25.1296 15.1536 25.1802 15.2488 25.2487 15.3307C25.3172 15.4127 25.4022 15.4796 25.4981 15.5271C25.5941 15.5747 25.6989 15.6019 25.8061 15.6071C25.6953 15.6055 25.5861 15.5812 25.4853 15.5357C25.3844 15.4902 25.2942 15.4245 25.2202 15.3427C25.1462 15.2609 25.09 15.1647 25.0552 15.0603C25.0204 14.9559 25.0078 14.8454 25.018 14.7359C25.0419 14.5125 25.1264 14.2997 25.2626 14.1202C25.3988 13.9408 25.5815 13.8014 25.7912 13.7171C26.6128 13.403 27.4832 13.2331 28.3634 13.215C30.1062 13.1082 31.8556 13.2273 33.5673 13.5694C36.9537 14.371 40.2473 15.519 43.3953 16.9951Z" fill="#EF4380"/>
<path d="M42.191 18.073C41.6111 20.214 40.7041 22.2517 40.1689 24.3927C39.5072 26.503 39.6393 28.7801 40.5406 30.8011C41.5665 32.7649 43.5142 33.9609 45.2836 35.3342C46.1733 36.0135 46.9465 36.8312 47.5733 37.7557C48.2132 38.6837 48.4736 39.8187 48.3019 40.9304C48.4415 39.8262 48.1487 38.7108 47.4841 37.8148C46.8535 36.9103 46.0804 36.1126 45.1944 35.4523C43.4845 34.0938 41.4475 32.9273 40.3473 30.9044C39.4397 28.8312 39.3234 26.5006 40.0202 24.3484C40.5852 22.1926 41.5368 20.1845 42.191 18.073Z" fill="#EF4380"/>
<path d="M89.1452 76.3978C90.4948 77.2822 92.1086 77.681 93.7182 77.5279C95.3277 77.3748 96.836 76.6789 97.9919 75.5561C99.418 73.9297 100.387 71.9587 100.802 69.8418C100.995 68.9263 99.5828 68.5276 99.3152 69.4579C98.3339 73.8876 94.6911 78.0368 89.8143 75.1427C89.6467 75.0448 89.4468 75.017 89.2586 75.0655C89.0704 75.1139 88.9093 75.2346 88.8107 75.4011C88.7121 75.5675 88.6841 75.766 88.7329 75.9529C88.7817 76.1399 88.9033 76.2999 89.0709 76.3978H89.1452Z" fill="#EF6898"/>
<path d="M117.023 52.2558C116.206 53.7323 96.7876 62.9462 88.5505 62.7838C87.5824 55.0907 89.2253 47.2966 93.2192 40.6351C94.1348 38.8553 95.5565 37.3817 97.308 36.3973C98.458 35.9408 99.6982 35.7527 100.933 35.8474C102.168 35.9421 103.364 36.3172 104.43 36.9436C106.547 38.2144 108.453 39.8034 110.08 41.6539C113.173 44.7104 116.325 48.0623 117.023 52.2558Z" fill="white"/>
<path d="M88.7735 63.0052H88.4018V62.8428C87.3903 55.0622 89.0509 47.1703 93.1151 40.4431C94.0564 38.6333 95.5082 37.1351 97.2931 36.1315C98.468 35.6599 99.7366 35.4638 101 35.5586C102.264 35.6534 103.488 36.0364 104.579 36.6778C106.712 37.9554 108.634 39.5544 110.273 41.4177C113.024 44.2379 116.458 47.7522 117.261 52.1967C116.339 54.0719 96.9363 63.0052 88.7735 63.0052ZM88.7735 62.5918C97.1593 62.5918 115.715 53.7323 116.83 52.2557C116.027 47.9589 112.667 44.5185 109.961 41.7425C108.347 39.9043 106.456 38.3253 104.356 37.0617C103.316 36.446 102.147 36.0765 100.941 35.9817C99.7339 35.887 98.5214 36.0696 97.3972 36.5154C95.6822 37.4893 94.2879 38.9355 93.3827 40.6794C89.4361 47.2715 87.8142 54.9819 88.7735 62.5918Z" fill="#EF6898"/>
<path d="M117.023 52.2557C117.023 52.2557 105.664 33.0602 97.6945 38.0215C89.7251 42.9828 88.5654 62.8132 88.5654 62.8132C87.5973 55.1201 89.2402 47.3261 93.234 40.6646C94.1496 38.8848 95.5714 37.4112 97.3228 36.4268C98.4728 35.9703 99.713 35.7822 100.948 35.8769C102.183 35.9716 103.379 36.3467 104.445 36.9731C106.562 38.2439 108.468 39.8328 110.095 41.6834C113.173 44.7104 116.325 48.0622 117.023 52.2557Z" fill="#EF6898"/>
<path d="M107.998 50.9268C114.496 50.6463 112.697 43.9426 109.336 40.7532C108.392 39.8677 107.367 39.0718 106.274 38.3759C105.052 37.3753 103.656 36.6047 102.155 36.102C101.456 35.8928 100.721 35.8307 99.9963 35.9197C99.2718 36.0087 98.5739 36.2468 97.9473 36.6188C94.141 39.0995 96.4605 45.1239 99.2706 47.5012C100.235 48.2751 101.294 48.925 102.423 49.4355C104.128 50.385 106.044 50.8976 107.998 50.9268Z" fill="#EF6898"/>
<path d="M100.371 39.7934C100.49 45.8326 111.998 48.8744 109.812 41.8606C109.515 40.9009 107.939 39.8968 106.571 38.9075C103.746 37.0913 100.296 36.0134 100.371 39.7934Z" fill="white"/>
<path d="M100.192 39.7934C100.328 41.0616 100.818 42.267 101.606 43.2739C102.394 44.2809 103.449 45.0494 104.653 45.493C106.14 46.1427 108.742 46.63 109.842 44.9467C111.76 41.9935 107.879 39.4981 105.798 38.3021C103.478 36.9584 100.237 36.1906 100.148 39.7787C100.148 39.8276 100.167 39.8746 100.202 39.9092C100.237 39.9438 100.284 39.9632 100.334 39.9632C100.383 39.9632 100.43 39.9438 100.465 39.9092C100.5 39.8746 100.52 39.8276 100.52 39.7787C100.624 35.3489 105.619 38.4793 107.493 39.7787C108.192 40.1265 108.782 40.6564 109.201 41.3119C109.62 41.9673 109.852 42.7235 109.872 43.4997C109.878 43.9514 109.737 44.393 109.469 44.758C109.201 45.1229 108.82 45.3912 108.385 45.5226C104.95 46.6595 100.698 43.0419 100.505 39.7491C100.549 39.5572 100.178 39.5572 100.192 39.7934Z" fill="#EF6898"/>
<path d="M118.376 42.4217C117.654 42.1839 116.949 41.8977 116.265 41.5653C115.902 41.4157 115.579 41.1845 115.321 40.8898C115.063 40.5952 114.877 40.2452 114.778 39.8672C114.496 38.2873 115.433 36.9141 115.819 35.4375C116.044 34.7262 116.044 33.9635 115.819 33.2521C115.584 32.5451 115.163 31.9132 114.6 31.4212C113.413 30.4852 111.987 29.897 110.481 29.7231C107.508 29.4426 104.281 30.107 101.456 28.6748C100.103 27.9217 99.0297 26.7571 98.3934 25.3525C97.8526 23.9416 97.6588 22.4229 97.8284 20.9227C97.6854 22.43 97.9098 23.9494 98.4826 25.3525C99.1044 26.7156 100.146 27.8478 101.456 28.5862C102.854 29.2233 104.379 29.5363 105.917 29.5016C107.404 29.5755 108.89 29.3688 110.496 29.5016C112.039 29.6863 113.498 30.3006 114.704 31.2735C115.288 31.7921 115.723 32.4542 115.968 33.1931C116.173 33.9423 116.142 34.7359 115.879 35.467C115.462 36.9436 114.54 38.2873 114.793 39.7934C114.876 40.1592 115.043 40.5012 115.28 40.793C115.517 41.0848 115.819 41.3187 116.161 41.4767C116.876 41.8438 117.616 42.1596 118.376 42.4217Z" fill="#EF4380"/>
<path d="M75.392 66.6228C75.392 66.6228 74.1431 55.4156 68.0619 50.0409L67.9578 49.8489L67.4077 49.4207C66.3672 48.9438 65.202 48.8043 64.0772 49.022C63.386 49.3315 62.8125 49.8523 62.4407 50.5085C62.0689 51.1647 61.9181 51.9218 62.0105 52.6692C62.0885 54.2847 62.4352 55.8763 63.0364 57.3795C64.8057 62.0307 71.4073 63.4039 72.3886 59.3876C73.5757 61.719 74.5798 64.1379 75.392 66.6228Z" fill="#EF6898"/>
<path d="M69.0432 59.0037C69.7866 59.24 71.9277 59.0923 72.4332 58.3245C72.4332 58.3245 72.4332 54.1162 67.3631 50.3805C66.6429 50.9236 66.1122 51.6772 65.8455 52.5353C65.5789 53.3934 65.5896 54.3129 65.8763 55.1646C66.051 56.0116 66.4307 56.8037 66.9824 57.4725C67.5341 58.1413 68.2414 58.6668 69.0432 59.0037Z" fill="white"/>
<path d="M69.9353 59.4614C69.5944 59.4699 69.2539 59.4301 68.9243 59.3433C68.0492 58.9946 67.2762 58.4333 66.6762 57.711C66.0761 56.9887 65.6682 56.1284 65.4897 55.2089C65.1934 54.2801 65.1945 53.2828 65.4927 52.3546C65.791 51.4264 66.3717 50.6129 67.1549 50.0261L67.3631 49.8932L67.5713 50.0409C72.7306 53.8504 72.79 58.103 72.79 58.2802V58.3835V58.4721C72.4144 58.832 71.9647 59.1068 71.4719 59.2776C70.9791 59.4484 70.4549 59.5111 69.9353 59.4614ZM69.1473 58.6493C70.161 58.8792 71.2249 58.7154 72.121 58.1916C71.8972 56.7044 71.3639 55.2798 70.5549 54.0086C69.746 52.7375 68.6792 51.6477 67.4226 50.8087C66.8311 51.3236 66.4056 52.0002 66.1993 52.7539C65.9931 53.5077 66.0152 54.3051 66.2628 55.0465C66.4297 55.8405 66.7871 56.5827 67.3049 57.21C67.8226 57.8373 68.4853 58.331 69.2365 58.6493H69.1473Z" fill="#EF6898"/>
<path d="M79.9417 202.867C79.7077 203.568 79.6382 204.313 79.7388 205.045C79.8393 205.777 80.107 206.476 80.5216 207.09C82.1274 208.566 98.2447 208.359 100.505 207.09C101.828 206.307 101.516 202.881 101.248 202.173" fill="#EF6898"/>
<path d="M89.3385 208.522C85.1159 208.522 81.1461 208.197 80.2688 207.414C79.1686 206.425 79.1686 203.812 79.5849 202.778L80.2688 203.044C80.0666 203.678 80.0057 204.349 80.0905 205.01C80.1752 205.67 80.4035 206.304 80.7595 206.868C82.2463 208.153 98.0811 208.064 100.296 206.765C101.352 206.145 101.159 202.985 100.891 202.335L101.575 202.084C101.858 202.837 102.244 206.514 100.668 207.444C99.5233 208.079 94.2599 208.522 89.3385 208.522Z" fill="white"/>
<path d="M82.5734 196.104C81.5523 196.883 80.7666 197.926 80.3024 199.119C79.8382 200.311 79.7135 201.608 79.9417 202.867C93.3233 205.731 101.218 202.35 101.248 202.114C100.708 199.087 99.1637 196.327 96.8619 194.273C94.3373 192.747 91.3126 192.259 88.4316 192.914C87.89 193.048 87.3832 193.295 86.9447 193.638C85.8798 194.558 84.6487 195.27 83.3169 195.735" fill="#EF6898"/>
<path d="M90.2604 204.343C86.7603 204.331 83.2715 203.95 79.8525 203.206H79.6146V202.97C79.3741 201.636 79.5077 200.263 80.0007 199C80.4937 197.737 81.3272 196.633 82.4099 195.809L82.8113 196.429C81.8769 197.145 81.1516 198.096 80.7099 199.184C80.2683 200.271 80.1263 201.456 80.2986 202.616C92.0743 205.081 99.6274 202.616 100.876 201.995C100.324 199.144 98.8458 196.551 96.6686 194.613C94.2385 193.155 91.334 192.689 88.5654 193.313C88.0766 193.437 87.6203 193.664 87.2272 193.978C86.1026 194.934 84.8062 195.67 83.4061 196.148L83.2723 195.484C84.5394 195.03 85.7095 194.344 86.7217 193.461C87.1822 193.038 87.7303 192.721 88.3275 192.531C91.3285 191.856 94.4764 192.386 97.085 194.007C99.4439 196.119 101.016 198.96 101.545 202.069V202.276L101.367 202.409C100.891 202.867 96.8917 204.343 90.2604 204.343Z" fill="white"/>
<path d="M88.6546 198.201C88.6856 197.942 88.8066 197.701 88.9966 197.521C89.5548 197.104 90.192 196.803 90.87 196.635C91.8277 196.319 92.8492 196.243 93.8437 196.414C93.9947 196.445 94.1381 196.505 94.2656 196.592C94.3932 196.678 94.5024 196.788 94.5871 196.916L88.6546 198.201Z" fill="#EF6898"/>
<path d="M88.2531 198.658V198.171C88.292 197.821 88.4554 197.496 88.7141 197.256C89.3092 196.798 89.9923 196.466 90.7213 196.281C91.7516 195.944 92.8505 195.868 93.918 196.06C94.1173 196.101 94.306 196.183 94.4722 196.3C94.6385 196.416 94.7788 196.566 94.8844 196.739L95.1075 197.167L88.2531 198.658ZM92.9367 196.68C92.266 196.689 91.6001 196.793 90.9592 196.99C90.4331 197.144 89.9322 197.372 89.4724 197.669L93.7247 196.754C93.4649 196.706 93.2007 196.686 92.9367 196.694V196.68Z" fill="white"/>
<path d="M87.6881 196.311C88.0626 195.687 88.6392 195.208 89.3237 194.952C89.6649 194.824 90.031 194.775 90.3941 194.809C90.7573 194.842 91.1081 194.957 91.4201 195.144L87.6881 196.311Z" fill="#EF6898"/>
<path d="M87.0637 196.96L87.3462 196.252C87.7502 195.54 88.3918 194.992 89.1601 194.701C89.5774 194.531 90.0318 194.47 90.4796 194.524C90.9274 194.578 91.3537 194.746 91.7175 195.011L92.0148 195.425L87.0637 196.96ZM90.0373 195.233C89.823 195.227 89.61 195.267 89.4129 195.351L89.0114 195.572L90.0671 195.247L90.0373 195.233Z" fill="white"/>
<path d="M124.026 45.7736C122.54 43.0862 119.744 42.9828 117.276 41.9935C116.408 41.7533 115.645 41.234 115.105 40.517C114.05 38.6565 116.087 36.5302 116.161 34.3892C116.25 31.6723 113.187 29.9594 110.437 29.6789C107.686 29.3983 104.846 30.0037 102.304 28.9997C101.019 28.4865 99.9133 27.6126 99.1211 26.4849C98.3289 25.3573 97.8848 24.0247 97.8432 22.6504C97.9228 21.8994 97.9228 21.1422 97.8432 20.3912C97.2931 17.9401 94.1113 17.187 91.5836 17.4381C88.3932 17.7555 85.33 18.8456 82.6626 20.6127C84.878 22.5913 84.3874 26.3713 82.4693 28.6305C80.5513 30.8897 77.6669 32.0562 74.9311 33.2374C74.4245 33.3977 73.9787 33.7066 73.6524 34.1234C73.4408 34.5441 73.3434 35.0123 73.3699 35.4818C73.4072 39.0106 72.5698 42.4943 70.9315 45.6259C70.1061 47.1987 68.8574 48.5132 67.3244 49.423C65.7914 50.3329 64.0341 50.8023 62.2484 50.7792C62.7539 52.5511 61.3117 54.2491 59.8248 55.3566C59.0368 55.9324 56.9999 56.966 56.7471 57.9701C56.3903 59.4467 58.8584 62.7837 59.1855 64.3489C59.6239 67.0795 59.8624 69.8381 59.8992 72.603C59.8992 72.603 49.8779 67.4497 49.7441 50.9711C49.5657 29.546 60.033 17.4381 74.1282 14.0567C116.027 3.72066 124.22 39.4981 125.26 47.7522C125.26 47.7522 124.651 47.0287 124.443 46.6891C124.262 46.4043 124.122 46.0963 124.026 45.7736Z" fill="#EF6898"/>
<path d="M84.1643 13.9829C84.7145 13.8057 85.2497 13.6728 85.6512 13.5399C86.7752 13.1675 87.9464 12.9538 89.1304 12.905C90.512 12.9154 91.8548 13.3599 92.9664 14.1748C94.0518 14.9722 96.4456 16.1091 97.0998 17.3199C97.7743 18.8147 98.036 20.4608 97.8581 22.0893C97.9679 21.2249 97.8394 20.3471 97.4864 19.5496C97.1661 18.9096 96.644 18.3911 95.9995 18.073C95.4876 17.81 94.9426 17.6163 94.3789 17.4971C93.889 17.3952 93.3919 17.331 92.8921 17.3052C91.6869 17.2815 90.4834 17.4054 89.3088 17.6743C88.1045 17.9111 86.9284 18.2724 85.7998 18.7522C84.6678 19.2425 83.5786 19.8253 82.5437 20.4946C82.2167 20.2076 81.9225 19.8857 81.6664 19.5348C81.284 18.8986 81.0821 18.1716 81.0821 17.4307C81.0821 16.6898 81.284 15.9627 81.6664 15.3266C82.3691 14.6731 83.2293 14.2103 84.1643 13.9829Z" fill="#EF4380"/>
<path d="M74.1431 4.25223C73.2647 4.80887 72.5212 5.55164 71.966 6.42727C71.4107 7.30289 71.0575 8.28969 70.9315 9.31689C70.7736 11.3753 71.1152 13.4412 71.9277 15.3413C72.7046 17.2578 73.3261 19.2328 73.7862 21.2476C73.9489 22.2749 73.9489 23.3211 73.7862 24.3484C73.7427 24.874 73.5105 25.3666 73.132 25.7364C72.9345 25.9218 72.6783 26.0335 72.4072 26.0523C72.1361 26.0712 71.8668 25.996 71.6452 25.8398C71.868 25.9979 72.1406 26.0715 72.4134 26.0471C72.6862 26.0227 72.9412 25.902 73.132 25.7069C73.4922 25.3365 73.7038 24.8481 73.7267 24.3337C73.8593 23.3067 73.8292 22.2654 73.6375 21.2476C73.1578 19.2312 72.5164 17.2561 71.7195 15.3413C70.9295 13.4049 70.6184 11.3087 70.8125 9.22829C70.9511 8.20227 71.323 7.22102 71.9 6.35888C72.4771 5.49674 73.2441 4.77633 74.1431 4.25223Z" fill="#EF4380"/>
<path d="M72.5968 21.3658C68.6442 22.1746 65.1148 24.3646 62.6498 27.5378C61.4319 29.1193 60.605 30.9626 60.2357 32.9195C59.8664 34.8764 59.965 36.892 60.5237 38.8041C59.8661 36.9059 59.7174 34.8704 60.0925 32.8978C60.4541 30.9154 61.2679 29.0415 62.4714 27.4197C64.9687 24.2189 68.5798 22.0598 72.5968 21.3658Z" fill="#EF4380"/>
<path d="M55.7509 43.9869C53.0535 47.4638 51.7884 51.8293 52.2122 56.1982C52.4356 58.3592 53.1199 60.4481 54.2195 62.326C55.29 64.216 56.8809 65.7664 57.9068 67.7303C58.4352 68.7082 58.7255 69.7955 58.7543 70.9049C58.7601 72.0224 58.3767 73.1074 57.6689 73.9762C56.985 74.8474 56.1821 75.6004 55.5279 76.4568C54.8646 77.3153 54.2775 78.2292 53.7734 79.1885C52.7524 81.1147 52.1339 83.2259 51.955 85.3953C51.7762 87.5648 52.0407 89.7478 52.7326 91.8132C52.0002 89.7497 51.7041 87.5583 51.8627 85.3759C52.0213 83.1936 52.6313 81.0672 53.6545 79.1294C54.157 78.1553 54.744 77.2264 55.4089 76.3535C56.078 75.4823 56.8958 74.7145 57.5202 73.8581C58.2002 73.0226 58.5679 71.9791 58.561 70.9049C58.5277 69.8308 58.2426 68.7792 57.7284 67.8336C56.7322 65.9141 55.1562 64.3489 54.0708 62.4294C52.971 60.526 52.2918 58.4119 52.0784 56.2277C51.8728 54.0463 52.0899 51.8459 52.7178 49.7456C53.3692 47.6594 54.397 45.7081 55.7509 43.9869Z" fill="#EF4380"/>
<path d="M56.6579 68.7638C56.9196 70.2048 56.5991 71.6903 55.7658 72.8982C54.9709 74.1056 53.9078 75.1159 52.6583 75.8514C51.332 76.4259 49.9715 76.919 48.5844 77.328C47.2442 77.921 46.0438 78.7862 45.0606 79.8677C42.9046 81.9054 42.8303 85.1834 43.5737 87.8855C44.4629 90.6522 46.3473 92.9967 48.8669 94.471C46.2749 93.0649 44.3266 90.7229 43.425 87.9298C42.9831 86.5376 42.8313 85.0706 42.979 83.6182C43.1215 82.1432 43.779 80.7642 44.8375 79.72C45.8892 78.6881 47.1447 77.8837 48.5249 77.3575C49.9068 76.9475 51.2623 76.4544 52.5839 75.8809C53.829 75.1449 54.8871 74.1345 55.6766 72.9278C56.1114 72.3337 56.4223 71.6593 56.5908 70.9442C56.7593 70.2292 56.7821 69.4878 56.6579 68.7638Z" fill="#EF4380"/>
<path d="M39.0537 26.519C36.0801 28.6896 32.9726 31.7904 32.586 35.6442C32.1548 39.9411 35.7232 42.2002 38.8605 44.3413C44.0644 47.8998 50.993 53.2007 51.6324 60.0668C51.9892 63.8469 48.9709 67.686 45.5661 69.0149C40.2581 71.0969 34.1918 68.5424 28.7797 70.9935C26.9153 71.7985 25.2861 73.0585 24.0435 74.6565C22.8009 76.2545 21.9854 78.1385 21.6726 80.1335C21.0036 84.9619 24.6463 86.8372 27.2929 90.2924C29.0754 92.5173 30.4906 95.0093 31.4858 97.6752C32.0192 98.7549 32.1625 99.9838 31.8918 101.156C31.6211 102.328 30.9528 103.372 29.9989 104.113C27.3524 106.535 24.0516 108.543 24.7504 112.736C25.2741 114.699 26.2983 116.494 27.7241 117.949C28.9393 119.321 30.0618 120.771 31.0843 122.29C32.2738 124.165 36.5261 131.976 31.1587 132.109C31.1291 132.109 31.1007 132.121 31.0798 132.141C31.0589 132.162 31.0471 132.19 31.0471 132.22C31.0471 132.249 31.0589 132.277 31.0798 132.298C31.1007 132.319 31.1291 132.331 31.1587 132.331C34.7717 132.242 34.3405 128.713 33.3443 126.217C32.4805 124.109 31.3407 122.123 29.9543 120.311C27.6795 117.358 23.8434 114.287 25.0478 109.975C26.1331 106.121 31.233 105.147 32.2589 101.485C32.9875 98.886 30.7721 95.2684 29.5529 93.1717C28.3372 91.1341 26.8905 89.2416 25.241 87.5312C23.8458 86.4077 22.7781 84.9345 22.1484 83.2638C21.572 80.9723 21.8963 78.5488 23.0554 76.4864C24.059 74.7149 25.4747 73.2076 27.1844 72.0902C28.8941 70.9729 30.8481 70.2779 32.8834 70.0633C36.318 69.5465 39.7377 70.2257 43.1425 69.8122C48.0045 69.2364 52.7029 64.3932 51.7513 59.3285C50.6957 53.7914 46.0419 49.4059 41.7747 46.1279C38.801 43.8983 34.3405 41.9935 33.0618 38.2873C31.575 33.6213 35.7381 29.1621 39.1578 26.6666C39.2768 26.5781 39.1578 26.4009 39.0537 26.4747V26.519Z" fill="#EF4380"/>
<path d="M48.3613 48.2247C48.1795 46.7463 48.2549 45.2479 48.5844 43.795C48.8784 42.3285 49.3167 40.8943 49.8928 39.5129C50.4526 38.1142 51.2413 36.817 52.2271 35.6738C53.253 34.5516 54.5763 33.7985 55.6022 32.7206C56.6581 31.6641 57.3414 30.2966 57.55 28.8225C57.7662 27.3537 57.7662 25.8615 57.55 24.3927C57.1678 21.4321 56.2989 18.5539 54.9778 15.8729C56.3845 18.5256 57.3058 21.4053 57.6987 24.378C57.9126 25.8469 57.9126 27.3388 57.6987 28.8077C57.4777 30.3192 56.768 31.7184 55.6766 32.7945C54.6209 33.8871 53.2828 34.655 52.2866 35.7476C51.3053 36.8667 50.5166 38.1389 49.9522 39.5129C49.3698 40.8845 48.9217 42.3086 48.6141 43.7654C48.2704 45.2261 48.1849 46.735 48.3613 48.2247Z" fill="#EF4380"/>
<path d="M82.5734 20.5389C83.2007 21.1592 83.6582 21.9282 83.9028 22.7731C84.1473 23.618 84.1708 24.5109 83.971 25.3673C83.5833 27.0989 82.6324 28.6556 81.265 29.797C79.8915 30.909 78.3514 31.8008 76.7004 32.4401C75.8839 32.746 75.0934 33.1163 74.3364 33.5475C73.9674 33.7503 73.6633 34.0523 73.4591 34.4187C73.3358 34.82 73.2953 35.2419 73.3402 35.659C73.3951 37.4115 73.2201 39.1637 72.8198 40.8713C72.4727 42.5993 71.8343 44.2567 70.9315 45.7736C70.482 46.5121 69.9536 47.2002 69.3555 47.826C68.7265 48.4473 68.0338 49.0016 67.2888 49.4798C65.8359 50.5204 64.0415 50.9791 62.2632 50.7644V50.6758C62.368 51.5013 62.2816 52.3397 62.0105 53.1269C61.6361 53.8579 61.0648 54.4713 60.3601 54.8988L58.3826 56.3016C57.7192 56.7177 57.2003 57.3258 56.8958 58.0439C56.9074 58.8347 57.1279 59.6087 57.5351 60.2883C57.892 61.0119 58.2934 61.7649 58.6354 62.4441C58.9607 63.1857 59.2436 63.9449 59.4829 64.7181L60.2263 67.0215C60.8347 68.5246 61.1573 70.1267 61.1779 71.7466C61.1568 72.5669 60.8931 73.3629 60.4196 74.0353C59.8767 74.6406 59.2511 75.1674 58.561 75.6004C57.9076 76.0688 57.4004 76.7108 57.098 77.4526C56.7955 78.1944 56.7099 79.006 56.8512 79.7939C57.0294 80.5746 57.3521 81.3156 57.8027 81.9793C58.225 82.6624 58.7751 83.2588 59.4234 83.7364C60.7169 84.6962 62.1443 85.4935 63.3635 86.5566C64.6471 87.5735 65.531 89.0052 65.8614 90.6025C66.0188 91.3889 65.9935 92.2007 65.7874 92.976C65.5813 93.7513 65.1998 94.4697 64.6719 95.0765C64.1427 95.6876 63.5552 96.2464 62.9175 96.745C62.5973 96.9855 62.3121 97.2687 62.07 97.5867C61.8851 97.9404 61.7357 98.3113 61.6239 98.6941C61.2037 100.254 61.2817 101.905 61.8469 103.419C62.3376 104.896 63.0513 106.372 63.6311 107.849C63.9296 108.597 64.1682 109.367 64.3448 110.152C64.5961 110.925 64.5961 111.757 64.3448 112.53C64.0239 113.271 63.5372 113.931 62.9215 114.458C62.3058 114.985 61.5773 115.366 60.7913 115.571C61.576 115.362 62.3025 114.978 62.9156 114.449C63.5288 113.919 64.0124 113.258 64.33 112.515C64.579 111.747 64.579 110.92 64.33 110.152C64.1534 109.367 63.9148 108.597 63.6163 107.849C63.0364 106.372 62.3079 104.896 61.8172 103.419C61.2436 101.897 61.1605 100.236 61.5793 98.6646C61.6904 98.2768 61.8398 97.9009 62.0254 97.5424C62.2711 97.2183 62.5614 96.93 62.8877 96.686C63.5177 96.2056 64.1002 95.6666 64.6273 95.0765C65.1482 94.475 65.5236 93.7631 65.7246 92.9952C65.9256 92.2274 65.947 91.4241 65.7871 90.6468C65.4568 89.0653 64.578 87.6491 63.304 86.6452C62.0848 85.5821 60.6723 84.7848 59.3639 83.8397C58.7106 83.3574 58.1556 82.7561 57.7284 82.0678C57.271 81.3953 56.9433 80.6443 56.762 79.853C56.5633 79.0191 56.6415 78.1437 56.985 77.3576C57.323 76.6154 57.8324 75.9629 58.4718 75.4528C59.1463 75.0456 59.7616 74.5488 60.3006 73.9762C60.7642 73.3219 61.0228 72.5463 61.044 71.7466C61.0259 70.1265 60.7032 68.524 60.0925 67.0215L59.2598 64.7476C59.0201 63.9794 58.7372 63.2251 58.4123 62.4884C58.0704 61.7649 57.6689 61.0119 57.2972 60.3474C56.869 59.6428 56.638 58.8374 56.6281 58.0144C56.943 57.2487 57.495 56.6023 58.2042 56.1687L60.1817 54.7659C60.8698 54.3579 61.4267 53.7638 61.7875 53.0531C62.0828 52.3325 62.2148 51.5561 62.174 50.7792V50.6315H62.2484C64.001 50.8447 65.77 50.391 67.1995 49.3617C67.9283 48.8911 68.6059 48.3468 69.2216 47.7374C69.8166 47.1071 70.3401 46.4139 70.7828 45.6702C71.6625 44.1695 72.2808 42.5321 72.6116 40.827C73.0043 39.1331 73.1791 37.3966 73.132 35.659C73.0891 35.2106 73.1397 34.7582 73.2807 34.3301C73.5001 33.9273 73.8301 33.5945 74.2323 33.3703C74.9984 32.9326 75.7989 32.5574 76.6261 32.2481C78.2391 31.6157 79.7437 30.739 81.0866 29.6494C82.4472 28.5466 83.4079 27.0326 83.8224 25.3378C84.04 24.4983 84.0395 23.6176 83.8211 22.7784C83.6027 21.9391 83.1734 21.1685 82.5734 20.5389Z" fill="#EF4380"/>
<path d="M40.0053 114.804C40.0053 114.804 40.1094 112.352 41.0015 111.732C42.2293 111.117 43.6417 110.97 44.9714 111.319C50.6213 112.338 53.5355 114.966 58.4867 117.831C59.5253 118.312 60.4102 119.068 61.0441 120.016C61.328 120.452 61.4913 120.954 61.5174 121.473C61.5435 121.991 61.4315 122.507 61.1927 122.969" fill="#EF6898"/>
<path d="M61.4901 123.131L60.8656 122.762C61.0566 122.355 61.143 121.907 61.117 121.459C61.0911 121.011 60.9536 120.576 60.7169 120.193C60.1141 119.31 59.2817 118.606 58.3083 118.155C57.1188 117.461 56.0483 116.797 55.0224 116.147C52.0043 113.979 48.5588 112.47 44.9119 111.718C43.6846 111.354 42.3636 111.476 41.2245 112.057C40.6893 112.441 40.4216 113.977 40.377 114.848H39.6485C39.6485 114.582 39.7972 112.205 40.7933 111.496C41.4353 111.142 42.1418 110.917 42.8718 110.836C43.6018 110.755 44.3407 110.819 45.0457 111.024C48.803 111.798 52.351 113.358 55.4535 115.601C56.4795 116.251 57.5351 116.915 58.7097 117.594C59.8046 118.106 60.7359 118.908 61.4009 119.913C61.6907 120.397 61.851 120.947 61.8666 121.51C61.8822 122.074 61.7526 122.632 61.4901 123.131Z" fill="white"/>
<path d="M49.1048 129.2C49.8741 128.974 50.6207 128.677 51.335 128.314C52.3689 127.921 53.4696 127.731 54.5763 127.753C54.8504 127.733 55.1257 127.772 55.3827 127.869C55.6396 127.966 55.872 128.118 56.0632 128.314C56.2629 128.692 56.3938 129.102 56.4497 129.525C56.5687 129.938 56.9107 130.367 57.3418 130.293C57.773 130.219 57.892 129.879 58.0258 129.569C59.2093 127.44 60.2378 125.229 61.1035 122.954C60.3897 123.036 59.6681 122.896 59.0368 122.556C58.4028 122.136 57.8235 121.64 57.3121 121.079C55.7785 119.761 54.0912 118.631 52.2866 117.712C49.4021 116.118 46.2352 114.567 42.9641 115.01C41.9217 115.02 40.8795 114.976 39.8418 114.877C39.3773 116.999 39.3773 119.194 39.8418 121.315C40.2135 122.999 43.0236 130.308 49.1048 129.2Z" fill="#EF6898"/>
<path d="M57.2972 130.677C57.0193 130.645 56.7588 130.526 56.5531 130.338C56.3474 130.149 56.2071 129.901 56.1524 129.628C56.1524 129.495 56.1524 129.348 56.0631 129.215C56.0327 128.974 55.9517 128.743 55.8253 128.536C55.6663 128.38 55.4741 128.263 55.2631 128.191C55.052 128.119 54.8275 128.096 54.606 128.122C53.5352 128.092 52.4689 128.272 51.4688 128.654C51.2161 128.757 50.9633 128.875 50.7105 128.993C50.2422 129.249 49.7424 129.442 49.2237 129.569C42.9047 130.706 39.9905 123.456 39.5593 121.448C39.0779 119.264 39.0779 117.002 39.5593 114.818C39.6485 114.523 39.7972 114.538 40.5852 114.612C41.3791 114.709 42.1796 114.744 42.979 114.715C46.369 114.242 49.6846 115.881 52.5393 117.461C54.3402 118.396 56.0222 119.542 57.55 120.872L57.8771 121.182C58.2653 121.591 58.7051 121.949 59.1855 122.246C59.7575 122.555 60.4125 122.679 61.0589 122.6H61.609L61.4604 123.131C60.9398 124.668 60.2727 126.151 59.468 127.561C59.0814 128.285 58.7097 129.038 58.3677 129.747C58.2339 130.012 57.9812 130.588 57.4013 130.677H57.2972ZM54.3979 127.399H54.5763C54.9088 127.371 55.2432 127.42 55.553 127.543C55.8628 127.666 56.1393 127.859 56.3605 128.108C56.5516 128.402 56.6735 128.735 56.7174 129.082C56.7174 129.2 56.7174 129.318 56.7917 129.436C56.866 129.555 57.0891 129.953 57.2675 129.938C57.4459 129.924 57.5797 129.643 57.6838 129.407C58.0258 128.669 58.4123 127.93 58.7989 127.192C59.4891 125.953 60.0855 124.665 60.5831 123.338C59.9637 123.324 59.3567 123.162 58.8138 122.866C58.2687 122.543 57.7687 122.151 57.327 121.699L56.9999 121.389C55.4891 120.089 53.8268 118.974 52.0487 118.067C49.1791 116.487 46.1014 114.966 42.9493 115.409C42.0958 115.452 41.2402 115.423 40.3919 115.32H40.0648C39.6743 117.3 39.6743 119.336 40.0648 121.315C40.4514 123.058 43.2169 129.894 48.8817 128.875C49.3537 128.763 49.8086 128.589 50.2348 128.359C50.5024 128.226 50.77 128.108 51.0376 128.004C52.1132 127.589 53.259 127.384 54.4128 127.399H54.3979Z" fill="white"/>
<path d="M43.5737 121.655C43.9894 121.622 44.3811 121.448 44.684 121.164C44.9869 120.879 45.1827 120.5 45.239 120.09C44.06 120.575 42.7981 120.83 41.5219 120.843C41.5219 120.843 42.756 121.655 43.5737 121.655Z" fill="#EF6898"/>
<path d="M43.425 121.965C42.6535 121.865 41.9237 121.559 41.3137 121.079L40.4662 120.444H41.5219C42.7358 120.431 43.9364 120.19 45.0606 119.735L45.6107 119.44V120.06C45.5544 120.557 45.3268 121.02 44.9665 121.37C44.6061 121.72 44.1351 121.935 43.6332 121.98L43.425 121.965ZM42.6816 121.064C42.9259 121.185 43.1973 121.24 43.4696 121.227C43.8695 121.165 44.2392 120.979 44.5253 120.695C43.9236 120.874 43.3064 120.998 42.6816 121.064Z" fill="white"/>
<path d="M45.0159 123.899C46.3095 123.412 46.3541 122.659 46.3541 122.659C44.5104 122.91 42.1612 123.161 42.1612 123.161C42.5033 123.56 42.9608 123.845 43.4714 123.977C43.9821 124.109 44.5213 124.082 45.0159 123.899Z" fill="#EF6898"/>
<path d="M44.1685 124.431C43.744 124.427 43.3253 124.332 42.9406 124.154C42.5559 123.976 42.2141 123.718 41.9382 123.397L41.5219 122.88H42.191C42.191 122.88 44.5402 122.629 46.3839 122.378H46.8299V122.821C46.8299 122.925 46.7407 123.825 45.2539 124.372C44.8988 124.457 44.5308 124.478 44.1685 124.431ZM43.1277 123.427C43.4032 123.584 43.7113 123.676 44.0283 123.696C44.3453 123.717 44.6628 123.665 44.9565 123.545C45.2107 123.446 45.4468 123.306 45.6553 123.131L43.1277 123.427Z" fill="white"/>
<path d="M45.9081 126.838C46.2103 126.751 46.4821 126.582 46.6924 126.35C46.9026 126.117 47.043 125.831 47.0975 125.524C45.716 125.943 44.2741 126.132 42.8303 126.085C43.7551 126.641 44.8289 126.904 45.9081 126.838Z" fill="#EF6898"/>
<path d="M45.462 127.236C44.4615 127.164 43.4929 126.855 42.637 126.336L40.942 125.287L42.9047 125.671C44.2909 125.726 45.6769 125.556 47.0083 125.169L47.5733 125.021L47.4692 125.583C47.4025 125.964 47.2269 126.318 46.9633 126.604C46.6998 126.889 46.3593 127.093 45.9824 127.192C45.8108 127.223 45.6365 127.238 45.462 127.236ZM44.5848 126.38C44.9942 126.502 45.4259 126.532 45.8486 126.468C46.1103 126.415 46.3402 126.261 46.4879 126.04C45.8601 126.187 45.2248 126.3 44.5848 126.38Z" fill="white"/>
<path d="M123.536 119.809C124.041 128.447 121.32 136.214 120.309 139.935C119.382 142.888 119.054 145.995 119.343 149.075C119.524 150.647 120.022 152.167 120.806 153.544C121.59 154.921 122.645 156.128 123.907 157.093C118.733 162.556 108.653 163.117 100.743 162.408C95.053 162.11 89.4162 161.169 83.9413 159.603C71.5708 155.557 61.6388 147.155 49.7441 141.884C50.9336 134.501 58.8733 113.563 76.5071 105.486C76.5071 105.486 78.098 89.0521 94.5573 89.0521C96.3118 89.0521 100.267 89.2145 101.694 89.3474" fill="white"/>
<path d="M123.179 119.809C123.506 128.063 120.622 135.136 119.224 143.065C118.563 146.109 118.748 149.273 119.759 152.22C120.156 153.273 120.696 154.267 121.365 155.173C121.826 155.793 122.777 156.384 122.852 157.167C123 158.23 120.8 159.189 119.878 159.677C112.92 163.309 104.326 162.541 96.7876 161.759C87.527 160.779 78.5844 157.844 70.5598 153.15C66.9468 151.113 63.4379 148.912 59.8695 146.831C58.0704 145.782 56.2713 144.763 54.4276 143.789C52.9408 143.05 50.4875 142.312 50.2942 140.954C50.1009 139.595 51.3053 137.115 51.7811 135.786C52.7818 132.96 53.9894 130.212 55.3941 127.561C58.2946 121.839 62.1963 116.674 66.917 112.308C69.7373 110.071 72.719 108.043 75.8381 106.239C76.9978 105.457 76.6261 105.87 77.0275 104.881C78.6184 100.894 79.124 97.2914 82.395 94.0429C87.5841 88.8896 94.9588 89.1702 101.724 89.7165C102.2 89.7165 102.2 89.0225 101.724 88.993C94.2005 88.3728 86.2756 88.3285 80.9082 94.4859C79.2502 96.4474 77.979 98.7016 77.1613 101.13C76.8045 102.135 76.745 104.586 76.1354 105.398C75.3215 105.841 74.4768 106.226 73.6078 106.549C72.4514 107.2 71.3298 107.91 70.2476 108.676C68.6254 109.824 67.0854 111.082 65.6384 112.441C62.4465 115.48 59.6494 118.902 57.3121 122.629C53.4362 128.457 50.7348 134.976 49.3575 141.825C49.3359 141.902 49.3402 141.984 49.3697 142.059C49.3992 142.133 49.4523 142.196 49.5211 142.238C62.9026 148.41 74.6486 158.673 89.5021 161.434C99.9991 163.427 115.626 165.701 124.101 157.403C124.169 157.334 124.207 157.241 124.207 157.144C124.207 157.048 124.169 156.955 124.101 156.886C117.737 151.777 119.492 143.981 121.424 137.159C123.154 131.535 123.972 125.674 123.848 119.794C123.848 119.322 123.09 119.322 123.119 119.794L123.179 119.809Z" fill="#EF6898"/>
<path d="M105.411 82.1121C108.073 80.9308 112.712 81.6839 114.258 85.3163C115.26 88.158 115.531 91.2035 115.046 94.1757C115.046 94.1757 122.227 98.5021 127.342 109.045C129.572 113.622 128.517 118.835 125.573 119.381C120.086 120.474 117.499 118.894 117.499 118.894" fill="white"/>
<path d="M105.515 82.4665C113.143 79.6462 115.67 88.1956 114.689 94.0724C114.67 94.1496 114.675 94.2309 114.705 94.305C114.734 94.379 114.786 94.4422 114.853 94.4858C118.536 96.9711 121.66 100.189 124.026 103.936C126.39 107.45 129.498 112.411 127.669 116.738C126.361 119.853 120.517 120.163 117.692 118.554C117.609 118.516 117.514 118.511 117.426 118.539C117.338 118.567 117.264 118.626 117.218 118.705C117.172 118.784 117.157 118.877 117.176 118.967C117.195 119.056 117.246 119.135 117.321 119.189C120.532 121.02 126.881 120.902 128.413 117.033C130.94 110.625 124.74 102.873 120.666 98.5021C119.179 96.9221 117.455 95.7261 115.923 94.2643C115.15 93.526 115.626 94.2643 115.477 93.7623C115.388 92.4142 115.408 91.0613 115.537 89.7165C115.15 84.1793 111.195 79.5724 105.248 81.7577C104.802 81.9201 104.995 82.6289 105.441 82.4665H105.515Z" fill="#EF6898"/>
<path d="M96.6092 98.0296C99.9545 101.5 105.872 107.997 108.682 106.298C111.492 104.6 107.76 97.3357 107.76 97.3357C107.76 97.3357 96.6092 89.9528 99.1963 85.9365C100.237 84.2975 102.006 85.9365 102.006 85.9365C102.006 85.9365 101.858 80.3107 108.34 82.6732C112.102 84.0169 111.641 95.047 111.641 95.047C111.641 95.047 120.309 98.6941 121.781 114.124C122.138 117.801 116.533 120.547 113.247 120.592C92.7136 120.917 83.3317 109.074 81.6219 99.5948" fill="white"/>
<path d="M96.3564 98.2954C99.0327 101.086 102.675 106.003 106.764 106.83C109.619 107.406 110.407 104.881 110.02 102.504C109.781 100.303 108.844 98.2346 107.344 96.5974C106.036 95.3423 104.37 94.3973 103.047 93.157C102.088 92.3091 101.221 91.3639 100.46 90.3367C100.097 89.8468 99.7927 89.3166 99.5531 88.7568C99.3793 88.4645 99.2774 88.1357 99.2557 87.797C98.8989 86.6256 99.7315 86.0645 101.754 86.1137C101.805 86.1616 101.87 86.1937 101.939 86.2065C102.009 86.2192 102.081 86.212 102.146 86.1857C102.212 86.1593 102.269 86.1149 102.31 86.0577C102.351 86.0005 102.374 85.9328 102.378 85.8627C102.331 85.1754 102.504 84.4911 102.873 83.9075C103.241 83.324 103.786 82.8713 104.43 82.6142C107.404 81.5215 109.783 83.9579 110.526 86.5714C111.217 89.351 111.472 92.2196 111.284 95.0765C111.284 95.1393 111.3 95.201 111.331 95.2555C111.363 95.31 111.408 95.3552 111.463 95.3866C114.054 96.7651 116.179 98.8706 117.574 101.441C119.422 104.626 120.634 108.135 121.142 111.777C121.647 115.069 120.904 117.181 117.93 118.82C115.927 119.861 113.673 120.331 111.418 120.178C98.3636 119.913 84.655 113.179 82.0084 99.5062C81.9192 99.0485 81.2055 99.2404 81.2947 99.6982C83.5845 111.407 94.2005 118.702 105.575 120.474C110.452 121.212 119.759 121.95 121.93 115.822C122.792 113.371 121.618 109.783 120.934 107.421C120.131 104.516 118.807 101.78 117.023 99.3438C116.075 98.0525 114.949 96.8994 113.678 95.9182C113.291 95.6228 112.756 95.3866 112.414 95.0617C111.819 94.5154 112.028 94.9584 111.983 94.8402C111.359 93.1865 111.909 90.4105 111.641 88.6386C111.373 86.8667 110.957 84.2827 109.426 82.9538C107.181 80.99 102.2 81.2557 101.724 84.7995C101.486 86.6157 102.423 84.8881 100.594 84.7995C98.7651 84.7109 98.2744 86.409 98.438 87.7527C99.0178 92.4777 104.593 94.3677 107.359 97.439C108.846 99.078 111.284 106.298 106.601 105.929C104.698 105.767 102.556 103.345 101.293 102.164C99.8058 100.688 98.319 99.2109 96.8322 97.6605C96.5051 97.3209 95.9847 97.8377 96.3118 98.1773L96.3564 98.2954Z" fill="#EF6898"/>
<path d="M100.46 25.2049C98.0216 23.5954 92.6096 22.4289 90.0522 24.1712C89.2791 24.7028 90.0522 25.9579 90.7956 25.4263C92.9367 23.9498 97.6945 25.1015 99.7166 26.4599C100.505 26.9767 101.203 25.7217 100.46 25.2049Z" fill="#EF6898"/>
<path d="M108.296 62.134C108.493 62.134 108.682 62.0562 108.821 61.9178C108.961 61.7793 109.039 61.5915 109.039 61.3957C109.039 61.1999 108.961 61.0121 108.821 60.8737C108.682 60.7352 108.493 60.6574 108.296 60.6574C108.098 60.6574 107.909 60.7352 107.77 60.8737C107.631 61.0121 107.552 61.1999 107.552 61.3957C107.552 61.5915 107.631 61.7793 107.77 61.9178C107.909 62.0562 108.098 62.134 108.296 62.134Z" fill="#EF6898"/>
<path d="M114.317 58.354C114.514 58.354 114.704 58.2762 114.843 58.1378C114.982 57.9993 115.061 57.8115 115.061 57.6157C115.061 57.4199 114.982 57.2321 114.843 57.0937C114.704 56.9552 114.514 56.8774 114.317 56.8774C114.12 56.8774 113.931 56.9552 113.792 57.0937C113.652 57.2321 113.574 57.4199 113.574 57.6157C113.574 57.8115 113.652 57.9993 113.792 58.1378C113.931 58.2762 114.12 58.354 114.317 58.354Z" fill="#EF6898"/>
<path d="M112.102 64.9543C112.299 64.9543 112.488 64.8765 112.628 64.7381C112.767 64.5996 112.845 64.4118 112.845 64.216C112.845 64.0202 112.767 63.8324 112.628 63.694C112.488 63.5555 112.299 63.4777 112.102 63.4777C111.905 63.4777 111.716 63.5555 111.576 63.694C111.437 63.8324 111.359 64.0202 111.359 64.216C111.359 64.4118 111.437 64.5996 111.576 64.7381C111.716 64.8765 111.905 64.9543 112.102 64.9543Z" fill="#EF6898"/>
<path d="M63.0364 75.3346C63.2336 75.3346 63.4227 75.2569 63.5621 75.1184C63.7015 74.9799 63.7798 74.7922 63.7798 74.5964C63.7798 74.4005 63.7015 74.2128 63.5621 74.0743C63.4227 73.9358 63.2336 73.8581 63.0364 73.8581C62.8392 73.8581 62.6502 73.9358 62.5107 74.0743C62.3713 74.2128 62.293 74.4005 62.293 74.5964C62.293 74.7922 62.3713 74.9799 62.5107 75.1184C62.6502 75.2569 62.8392 75.3346 63.0364 75.3346Z" fill="#EF6898"/>
<path d="M67.4672 72.8244C67.6643 72.8244 67.8534 72.7466 67.9928 72.6082C68.1323 72.4697 68.2106 72.2819 68.2106 72.0861C68.2106 71.8903 68.1323 71.7025 67.9928 71.5641C67.8534 71.4256 67.6643 71.3478 67.4672 71.3478C67.27 71.3478 67.0809 71.4256 66.9415 71.5641C66.8021 71.7025 66.7238 71.8903 66.7238 72.0861C66.7238 72.2819 66.8021 72.4697 66.9415 72.6082C67.0809 72.7466 67.27 72.8244 67.4672 72.8244Z" fill="#EF6898"/>
<path d="M67.4672 78.1697C67.6643 78.1697 67.8534 78.0919 67.9928 77.9535C68.1323 77.815 68.2106 77.6272 68.2106 77.4314C68.2106 77.2356 68.1323 77.0478 67.9928 76.9094C67.8534 76.7709 67.6643 76.6931 67.4672 76.6931C67.27 76.6931 67.0809 76.7709 66.9415 76.9094C66.8021 77.0478 66.7238 77.2356 66.7238 77.4314C66.7238 77.6272 66.8021 77.815 66.9415 77.9535C67.0809 78.0919 67.27 78.1697 67.4672 78.1697Z" fill="#EF6898"/>
<path d="M59.2896 74.9507C59.2739 76.0867 59.5448 77.2086 60.0776 78.214C60.7141 79.151 61.5456 79.9416 62.516 80.5322C63.4379 81.108 64.5976 81.8316 64.7314 83.1014C64.7711 84.2582 64.5475 85.409 64.0772 86.468C64.4236 85.3906 64.5746 84.2608 64.5232 83.131C64.3894 81.994 63.3635 81.2852 62.4119 80.6946C61.4292 80.0772 60.5923 79.2562 59.9587 78.2878C59.4355 77.2561 59.2043 76.1027 59.2896 74.9507Z" fill="#EF4380"/>
<path d="M107.448 97.3209C108.282 97.4218 109.128 97.2982 109.897 96.9631C110.666 96.6279 111.33 96.0936 111.82 95.4161C112.072 95.0174 111.433 94.6483 111.18 95.047C110.767 95.5755 110.226 95.991 109.607 96.2545C108.988 96.518 108.312 96.6207 107.642 96.5531C107.181 96.4792 106.987 97.1732 107.448 97.2618V97.3209Z" fill="#EF6898"/>
<path d="M111.983 95.3275C113.027 95.4138 114.071 95.1598 114.957 94.6039C115.031 94.5502 115.083 94.4709 115.102 94.3815C115.121 94.2921 115.106 94.1989 115.059 94.1199C115.013 94.0408 114.939 93.9817 114.851 93.9538C114.764 93.926 114.669 93.9314 114.585 93.969C113.86 94.4328 113.008 94.66 112.147 94.6187C111.686 94.6187 111.478 95.2536 111.953 95.3275H111.983Z" fill="#EF6898"/>
</svg>
